SplineFontDB: 3.0
FontName: OxygenSans-Thin
FullName: OxygenSans Thin
FamilyName: OxygenSans Thin
Weight: Thin
Copyright: vernon adams © 2011-2012
ItalicAngle: 0
UnderlinePosition: 0
UnderlineWidth: 0
Ascent: 1638
Descent: 410
UFOAscent: 1706
UFODescent: -442
LayerCount: 2
Layer: 0 0 "Back"  1
Layer: 1 0 "Fore"  0
OS2Version: 0
OS2_WeightWidthSlopeOnly: 0
OS2_UseTypoMetrics: 0
CreationTime: 1360803490
ModificationTime: 1360803623
PfmFamily: 0
TTFWeight: 250
TTFWidth: 5
LineGap: 0
VLineGap: 0
OS2TypoAscent: 0
OS2TypoAOffset: 1
OS2TypoDescent: 0
OS2TypoDOffset: 1
OS2TypoLinegap: 0
OS2WinAscent: 1600
OS2WinAOffset: 0
OS2WinDescent: 448
OS2WinDOffset: 0
HheadAscent: 1600
HheadAOffset: 0
HheadDescent: -448
HheadDOffset: 0
OS2SubXSize: -1002
OS2SubYSize: -925
OS2SubXOff: 0
OS2SubYOff: -115
OS2SupXSize: -1002
OS2SupYSize: -925
OS2SupXOff: 0
OS2SupYOff: -539
OS2StrikeYSize: -38
OS2StrikeYPos: -459
OS2Vendor: 'PfEd'
Lookup: 258 0 0 "'kern' Horizontal Kerning in Latin lookup 0"  {"'kern' Horizontal Kerning in Latin lookup 0 subtable"  } ['kern' ('latn' <'dflt' > ) ]
DEI: 91125
LangName: 1033 "" "" "" "" "" "" "" "" "" "vernon adams" "" "" "newtypography.co.uk" 
Encoding: UnicodeBmp
Compacted: 1
UnicodeInterp: none
NameList: AGL For New Fonts
DisplaySize: -48
AntiAlias: 1
FitToEm: 1
WinInfo: 0 22 9
BeginChars: 65547 628

StartChar: .notdef
Encoding: 65536 -1 0
Width: 861
VWidth: 0
Flags: W
LayerCount: 2
Fore
SplineSet
172 416 m 1
 172 573 l 1
 690 573 l 1
 690 416 l 1
 172 416 l 1
86 329 m 1
 776 329 l 1
 776 660 l 1
 86 660 l 1
 86 329 l 1
EndSplineSet
EndChar

StartChar: A
Encoding: 65 65 1
Width: 1217
VWidth: 0
Flags: W
LayerCount: 2
Fore
SplineSet
46 0 m 1
 160 0 l 1
 350 499 l 1
 297 461 l 1
 932 461 l 1
 878 497 l 1
 1064 0 l 1
 1171 0 l 1
 659 1354 l 1
 558 1354 l 1
 46 0 l 1
352 508 m 1
 631 1288 l 1
 586 1290 l 1
 875 508 l 1
 908 544 l 1
 323 544 l 1
 352 508 l 1
1063 0 m 0
603 1339 m 0
EndSplineSet
EndChar

StartChar: AE
Encoding: 198 198 2
Width: 2021
VWidth: 0
Flags: W
LayerCount: 2
Fore
SplineSet
130 0 m 1
 185 0 l 1
 434 425 l 1
 1139 425 l 1
 1167 0 l 1
 1860 0 l 1
 1849 111 l 1
 1233 111 l 1
 1190 703 l 1
 1813 703 l 1
 1813 815 l 1
 1173 815 l 1
 1132 1362 l 1
 1853 1362 l 1
 1841 1474 l 1
 1019 1474 l 1
 130 0 l 1
496 535 m 1
 1048 1410 l 1
 1116 535 l 1
 496 535 l 1
1010 1349 m 0
EndSplineSet
EndChar

StartChar: Alpha
Encoding: 913 913 9
Width: 1457
VWidth: 0
Flags: W
LayerCount: 2
Fore
SplineSet
163 0 m 1
 241 0 l 1
 426 471 l 1
 1026 471 l 1
 1202 0 l 1
 1274 0 l 1
 765 1349 l 1
 668 1349 l 1
 163 0 l 1
472 550 m 1
 456 504 706 1237 714 1273 c 1
 725 1227 999 508 984 550 c 1
 472 550 l 1
728 1349 m 0
EndSplineSet
EndChar

StartChar: Alphatonos
Encoding: 902 902 10
Width: 484
VWidth: 0
Flags: W
LayerCount: 2
Fore
SplineSet
229 485 m 0
 307 485 346 542 346 600 c 0
 346 658 307 715 229 715 c 0
 152 715 113 658 113 600 c 0
 113 542 152 485 229 485 c 0
EndSplineSet
EndChar

StartChar: B
Encoding: 66 66 16
Width: 1297
VWidth: 0
Flags: W
LayerCount: 2
Fore
SplineSet
214 0 m 1
 709 0 l 2
 1045 0 1181 153 1181 376 c 0
 1181 582 1048 694 807 725 c 1
 807 690 l 1
 1069 745 1124 859 1124 1025 c 0
 1124 1246 974 1354 624 1354 c 2
 214 1354 l 1
 214 0 l 1
285 88 m 1
 328 44 l 1
 328 703 l 1
 284 668 l 1
 624 668 l 2
 923 668 1067 599 1067 374 c 0
 1067 169 956 88 693 88 c 2
 285 88 l 1
283 756 m 1
 328 722 l 1
 328 1308 l 1
 286 1266 l 1
 636 1266 l 2
 894 1266 1018 1217 1018 1014 c 0
 1018 801 884 756 693 756 c 2
 283 756 l 1
EndSplineSet
EndChar

StartChar: Beta
Encoding: 914 914 17
Width: 1225
VWidth: 0
Flags: W
LayerCount: 2
Fore
SplineSet
150 0 m 1
 570 0 l 2
 906 0 1029 153 1029 376 c 0
 1029 539 943 687 722 712 c 1
 980 776 978 969 978 1025 c 0
 978 1246 824 1349 475 1349 c 2
 150 1349 l 1
 150 0 l 1
210 69 m 1
 210 665 l 1
 493 665 l 2
 792 665 957 599 957 374 c 0
 957 169 818 69 555 69 c 2
 210 69 l 1
210 750 m 1
 210 1273 l 1
 486 1273 l 2
 744 1273 899 1217 899 1014 c 0
 899 801 761 750 569 750 c 2
 210 750 l 1
EndSplineSet
EndChar

StartChar: C
Encoding: 67 67 18
Width: 1227
VWidth: 0
Flags: W
LayerCount: 2
Fore
SplineSet
779 -18 m 0
 958 -18 1111 38 1129 63 c 1
 1097 147 l 1
 1005 107 924 72 801 72 c 0
 427 72 254 340 254 675 c 0
 254 1010 428 1282 781 1282 c 0
 899 1282 1016 1248 1097 1195 c 1
 1143 1267 l 1
 1065 1327 936 1372 768 1372 c 0
 355 1372 140 1064 140 681 c 0
 140 265 392 -18 779 -18 c 0
637 1349 m 0
637 4 m 0
EndSplineSet
EndChar

StartChar: Chi
Encoding: 935 935 24
Width: 1358
VWidth: 0
Flags: W
LayerCount: 2
Fore
SplineSet
166 0 m 1
 269 0 l 1
 647 564 l 1
 1031 0 l 1
 1123 0 l 1
 683 677 l 1
 1140 1349 l 1
 1032 1349 l 1
 637 790 l 1
 239 1349 l 1
 142 1349 l 1
 604 674 l 1
 166 0 l 1
EndSplineSet
EndChar

StartChar: D
Encoding: 68 68 25
Width: 1450
VWidth: 0
Flags: W
LayerCount: 2
Fore
SplineSet
328 41 m 1
 328 1313 l 1
 280 1266 l 1
 577 1266 l 2
 967 1266 1196 1107 1196 675 c 0
 1196 282 1002 88 602 88 c 2
 280 88 l 1
 328 41 l 1
214 0 m 1
 621 0 l 2
 1051 0 1310 229 1310 679 c 0
 1310 1156 1021 1354 592 1354 c 2
 214 1354 l 1
 214 0 l 1
705 675 m 0
705 1349 m 0
EndSplineSet
EndChar

StartChar: Dcroat
Encoding: 272 272 27
Width: 1490
VWidth: 0
Flags: W
LayerCount: 2
Fore
SplineSet
384 141 m 1
 384 634 l 1
 604 634 l 1
 604 757 l 1
 384 757 l 1
 384 1220 l 1
 581 1220 l 2
 953 1220 1202 1097 1202 668 c 0
 1202 316 1004 141 671 141 c 2
 384 141 l 1
223 0 m 1
 654 0 l 2
 1084 0 1374 219 1374 672 c 0
 1374 1197 1031 1361 561 1361 c 2
 223 1361 l 1
 223 757 l 1
 116 757 l 1
 116 634 l 1
 223 634 l 1
 223 0 l 1
EndSplineSet
EndChar

StartChar: Delta
Encoding: 916 916 28
Width: 1525
VWidth: 0
Flags: W
LayerCount: 2
Fore
SplineSet
170 0 m 1
 1344 0 l 1
 821 1352 l 1
 692 1352 l 1
 170 0 l 1
342 111 m 1
 755 1226 l 1
 1174 111 l 1
 342 111 l 1
EndSplineSet
EndChar

StartChar: E
Encoding: 69 69 29
Width: 1140
VWidth: 0
Flags: W
LayerCount: 2
Fore
SplineSet
214 0 m 1
 1011 0 l 1
 1020 88 l 1
 287 88 l 1
 328 46 l 1
 328 685 l 1
 287 652 l 1
 945 652 l 1
 945 740 l 1
 287 740 l 1
 328 702 l 1
 328 1302 l 1
 289 1266 l 1
 1016 1266 l 1
 1020 1354 l 1
 214 1354 l 1
 214 0 l 1
1008 10 m 0
581 0 m 0
581 1349 m 0
EndSplineSet
EndChar

StartChar: Eng
Encoding: 330 330 38
Width: 1327
VWidth: 0
Flags: W
LayerCount: 2
Fore
SplineSet
792 -293 m 0
 1110 -293 1118 -118 1118 155 c 2
 1118 947 l 2
 1118 1248 1003 1396 787 1396 c 0
 617 1396 460 1378 241 1150 c 1
 229 1374 l 1
 166 1374 l 1
 170 0 l 1
 233 0 l 1
 233 1009 l 1
 325 1135 481 1289 748 1289 c 0
 983 1289 1056 1206 1056 945 c 2
 1056 167 l 2
 1056 -135 1039 -212 717 -212 c 0
 688 -212 700 -211 513 -201 c 1
 534 -276 l 1
 703 -292 753 -293 792 -293 c 0
EndSplineSet
EndChar

StartChar: Epsilon
Encoding: 917 917 40
Width: 1123
VWidth: 0
Flags: W
LayerCount: 2
Fore
SplineSet
142 0 m 1
 933 0 l 1
 940 86 l 1
 232 86 l 1
 232 651 l 1
 874 651 l 1
 874 740 l 1
 232 740 l 1
 232 1263 l 1
 943 1263 l 1
 947 1349 l 1
 142 1349 l 1
 142 0 l 1
561 1349 m 0
EndSplineSet
EndChar

StartChar: Epsilontonos
Encoding: 904 904 41
Width: 484
VWidth: 0
Flags: W
LayerCount: 2
Fore
SplineSet
229 485 m 0
 307 485 346 542 346 600 c 0
 346 658 307 715 229 715 c 0
 152 715 113 658 113 600 c 0
 113 542 152 485 229 485 c 0
EndSplineSet
EndChar

StartChar: Eta
Encoding: 919 919 42
Width: 1307
VWidth: 0
Flags: W
LayerCount: 2
Fore
SplineSet
141 0 m 1
 230 0 l 1
 230 664 l 1
 1046 664 l 1
 1046 0 l 1
 1136 0 l 1
 1136 1349 l 1
 1046 1349 l 1
 1046 744 l 1
 230 744 l 1
 230 1349 l 1
 141 1349 l 1
 141 0 l 1
EndSplineSet
EndChar

StartChar: Etatonos
Encoding: 905 905 43
Width: 484
VWidth: 0
Flags: W
LayerCount: 2
Fore
SplineSet
229 485 m 0
 307 485 346 542 346 600 c 0
 346 658 307 715 229 715 c 0
 152 715 113 658 113 600 c 0
 113 542 152 485 229 485 c 0
EndSplineSet
EndChar

StartChar: Eth
Encoding: 208 208 44
Width: 1603
VWidth: 0
Flags: W
LayerCount: 2
Fore
SplineSet
397 95 m 1
 397 663 l 1
 651 663 l 1
 651 747 l 1
 397 747 l 1
 397 1276 l 1
 654 1276 l 2
 1037 1276 1334 1144 1334 667 c 0
 1334 279 1111 95 751 95 c 2
 397 95 l 1
308 -1 m 1
 733 -1 l 2
 1159 -1 1439 212 1439 675 c 0
 1439 1219 1094 1375 632 1375 c 2
 308 1375 l 1
 308 750 l 1
 204 750 l 1
 204 666 l 1
 308 666 l 1
 308 -1 l 1
EndSplineSet
EndChar

StartChar: Euro
Encoding: 8364 8364 45
Width: 1227
VWidth: 0
Flags: W
LayerCount: 2
Fore
SplineSet
1129 63 m 1
 1097 147 l 1
 1005 107 924 72 801 72 c 0
 493 72 316 248 264 541 c 1
 223 504 l 1
 877 504 l 1
 887 592 l 1
 210 592 l 1
 262 552 l 1
 259 579 254 647 254 675 c 0
 254 710 258 779 262 812 c 1
 207 778 l 1
 887 778 l 1
 897 863 l 1
 215 863 l 1
 266 823 l 1
 320 1110 497 1282 781 1282 c 0
 899 1282 1016 1248 1097 1195 c 1
 1143 1267 l 1
 1065 1327 936 1372 768 1372 c 0
 423 1372 207 1162 149 823 c 1
 187 863 l 1
 46 863 l 1
 36 778 l 1
 184 778 l 1
 147 812 l 1
 144 780 140 714 140 681 c 0
 140 651 145 581 148 552 c 1
 187 592 l 1
 38 592 l 1
 28 504 l 1
 196 504 l 1
 149 541 l 1
 207 187 450 -18 779 -18 c 0
 958 -18 1111 38 1129 63 c 1
EndSplineSet
EndChar

StartChar: F
Encoding: 70 70 46
Width: 1016
VWidth: 0
Flags: W
LayerCount: 2
Fore
SplineSet
214 0 m 1
 332 0 l 1
 332 670 l 1
 284 639 l 1
 899 639 l 1
 899 722 l 1
 278 722 l 1
 332 685 l 1
 332 1315 l 1
 278 1266 l 1
 941 1266 l 1
 950 1354 l 1
 214 1354 l 1
 214 0 l 1
EndSplineSet
EndChar

StartChar: G
Encoding: 71 71 47
Width: 1399
VWidth: 0
Flags: W
LayerCount: 2
Fore
SplineSet
782 -18 m 0
 967 -18 1111 11 1245 60 c 1
 1245 676 l 1
 827 676 l 1
 818 577 l 1
 1179 577 l 1
 1131 625 l 1
 1131 70 l 1
 1169 124 l 1
 1117 105 970 72 819 72 c 0
 412 72 254 313 254 673 c 0
 254 1009 448 1282 790 1282 c 0
 1030 1282 1127 1207 1175 1177 c 1
 1204 1265 l 1
 1106 1344 947 1372 793 1372 c 0
 363 1372 140 1060 140 672 c 0
 140 286 350 -18 782 -18 c 0
704 1349 m 0
704 0 m 0
EndSplineSet
EndChar

StartChar: Gamma
Encoding: 915 915 48
Width: 1005
VWidth: 0
Flags: W
LayerCount: 2
Fore
SplineSet
136 0 m 1
 298 0 l 1
 298 1220 l 1
 916 1220 l 1
 930 1361 l 1
 136 1361 l 1
 136 0 l 1
EndSplineSet
EndChar

StartChar: H
Encoding: 72 72 54
Width: 1424
VWidth: 0
Flags: W
LayerCount: 2
Fore
SplineSet
210 0 m 1
 324 0 l 1
 324 688 l 1
 273 655 l 1
 1156 655 l 1
 1100 688 l 1
 1100 0 l 1
 1214 0 l 1
 1214 1354 l 1
 1100 1354 l 1
 1100 703 l 1
 1154 736 l 1
 273 736 l 1
 324 703 l 1
 324 1354 l 1
 210 1354 l 1
 210 0 l 1
707 675 m 0
707 1349 m 0
EndSplineSet
EndChar

StartChar: Hbar
Encoding: 294 294 55
Width: 1569
VWidth: 0
Flags: W
LayerCount: 2
Fore
SplineSet
261 0 m 1
 349 0 l 1
 349 658 l 1
 1204 658 l 1
 1204 0 l 1
 1292 0 l 1
 1292 1027 l 1
 1379 1027 l 1
 1379 1094 l 1
 1292 1094 l 1
 1292 1378 l 1
 1204 1378 l 1
 1204 1094 l 1
 349 1094 l 1
 349 1378 l 1
 261 1378 l 1
 261 1094 l 1
 173 1094 l 1
 173 1027 l 1
 261 1027 l 1
 261 0 l 1
349 761 m 1
 349 1027 l 1
 1204 1027 l 1
 1204 761 l 1
 349 761 l 1
EndSplineSet
EndChar

StartChar: I
Encoding: 73 73 57
Width: 546
VWidth: 0
Flags: W
LayerCount: 2
Fore
SplineSet
216 0 m 1
 330 0 l 1
 330 1354 l 1
 216 1354 l 1
 216 0 l 1
449 10 m 0
273 1354 m 0
EndSplineSet
EndChar

StartChar: Iota
Encoding: 921 921 67
Width: 385
VWidth: 0
Flags: W
LayerCount: 2
Fore
SplineSet
141 0 m 1
 230 0 l 1
 230 1349 l 1
 141 1349 l 1
 141 0 l 1
EndSplineSet
EndChar

StartChar: Iotatonos
Encoding: 906 906 68
Width: 484
VWidth: 0
Flags: W
LayerCount: 2
Fore
SplineSet
229 485 m 0
 307 485 346 542 346 600 c 0
 346 658 307 715 229 715 c 0
 152 715 113 658 113 600 c 0
 113 542 152 485 229 485 c 0
EndSplineSet
EndChar

StartChar: J
Encoding: 74 74 70
Width: 666
VWidth: 0
Flags: W
LayerCount: 2
Fore
SplineSet
136 -131 m 1
 443 -131 452 0 452 268 c 2
 452 1354 l 1
 338 1354 l 1
 338 226 l 2
 338 12 322 -37 120 -37 c 1
 136 -131 l 1
289 1349 m 0
EndSplineSet
EndChar

StartChar: K
Encoding: 75 75 72
Width: 1211
VWidth: 0
Flags: W
LayerCount: 2
Fore
SplineSet
214 0 m 1
 328 0 l 1
 328 621 l 1
 285 531 l 1
 490 726 l 1
 432 728 l 1
 1010 0 l 1
 1147 0 l 1
 498 798 l 1
 505 737 l 1
 1119 1354 l 1
 984 1354 l 1
 289 653 l 1
 328 644 l 1
 328 1354 l 1
 214 1354 l 1
 214 0 l 1
606 1349 m 0
606 0 m 0
EndSplineSet
EndChar

StartChar: L
Encoding: 76 76 74
Width: 1042
VWidth: 0
Flags: W
LayerCount: 2
Fore
SplineSet
214 0 m 1
 974 0 l 1
 974 88 l 1
 275 88 l 1
 328 33 l 1
 328 1354 l 1
 214 1354 l 1
 214 0 l 1
508 1349 m 0
508 0 m 0
EndSplineSet
EndChar

StartChar: Lambda
Encoding: 923 923 76
Width: 1525
VWidth: 0
Flags: W
LayerCount: 2
Fore
SplineSet
171 0 m 1
 328 0 l 1
 756 1210 l 1
 1192 0 l 1
 1344 0 l 1
 838 1355 l 1
 676 1355 l 1
 171 0 l 1
EndSplineSet
EndChar

StartChar: M
Encoding: 77 77 79
Width: 1690
VWidth: 0
Flags: W
LayerCount: 2
Fore
SplineSet
214 0 m 1
 321 0 l 1
 321 1000 l 1
 313 1324 l 1
 290 1324 l 1
 790 98 l 1
 909 98 l 1
 1411 1324 l 1
 1380 1324 l 1
 1371 1004 l 1
 1371 0 l 1
 1476 0 l 1
 1476 1354 l 1
 1314 1354 l 1
 821 149 l 1
 876 149 l 1
 383 1354 l 1
 214 1354 l 1
 214 0 l 1
EndSplineSet
EndChar

StartChar: Mu
Encoding: 924 924 80
Width: 1603
VWidth: 0
Flags: W
LayerCount: 2
Fore
SplineSet
124 0 m 1
 214 0 l 1
 214 905 l 1
 200 1243 l 1
 249 1116 l 1
 739 79 l 1
 844 79 l 1
 1315 1113 l 1
 1365 1240 l 1
 1357 910 l 1
 1357 0 l 1
 1441 0 l 1
 1441 1349 l 1
 1319 1349 l 1
 784 186 l 1
 255 1349 l 1
 124 1349 l 1
 124 0 l 1
EndSplineSet
EndChar

StartChar: N
Encoding: 78 78 81
Width: 1478
VWidth: 0
Flags: W
LayerCount: 2
Fore
SplineSet
214 0 m 1
 312 0 l 1
 312 844 l 1
 300 1282 l 1
 267 1262 l 1
 1156 0 l 1
 1264 0 l 1
 1264 1354 l 1
 1166 1354 l 1
 1166 497 l 1
 1174 80 l 1
 1211 85 l 1
 318 1354 l 1
 214 1354 l 1
 214 0 l 1
762 1349 m 0
762 0 m 0
EndSplineSet
EndChar

StartChar: Nu
Encoding: 925 925 86
Width: 1386
VWidth: 0
Flags: W
LayerCount: 2
Fore
SplineSet
141 0 m 1
 194 0 l 1
 194 1034 l 2
 194 1200 206 1247 206 1247 c 1
 655 617 679 625 1133 0 c 1
 1214 0 l 1
 1214 1349 l 1
 1161 1349 l 1
 1161 393 l 2
 1161 322 1158 60 1157 110 c 1
 705 739 682 725 226 1349 c 1
 141 1349 l 1
 141 0 l 1
EndSplineSet
EndChar

StartChar: O
Encoding: 79 79 87
Width: 1553
VWidth: 0
Flags: W
LayerCount: 2
Fore
SplineSet
778 72 m 0
 407 72 254 319 254 666 c 0
 254 1031 420 1282 779 1282 c 0
 1139 1282 1299 1029 1299 666 c 0
 1299 319 1149 72 778 72 c 0
779 -18 m 0
 1203 -18 1413 268 1413 664 c 0
 1413 1083 1188 1372 780 1372 c 0
 359 1372 140 1087 140 666 c 0
 140 259 347 -18 779 -18 c 0
777 1349 m 0
EndSplineSet
EndChar

StartChar: OE
Encoding: 338 338 88
Width: 1824
VWidth: 0
Flags: W
LayerCount: 2
Fore
SplineSet
802 -24 m 0
 902 -24 1082 42 1093 80 c 1
 1093 -3 l 1
 1619 -3 l 1
 1630 99 l 1
 1189 99 l 1
 1189 652 l 1
 1560 652 l 1
 1560 750 l 1
 1189 750 l 1
 1189 1277 l 1
 1598 1277 l 1
 1611 1374 l 1
 1093 1374 l 1
 1093 1291 l 1
 1038 1354 914 1403 769 1403 c 0
 409 1403 163 1116 149 719 c 1
 149 271 338 -24 802 -24 c 0
806 71 m 1
 388 77 262 357 262 723 c 1
 273 1081 473 1308 794 1308 c 0
 910 1308 1019 1264 1093 1211 c 1
 1093 145 l 1
 1062 137 907 71 806 71 c 1
912 1349 m 0
EndSplineSet
EndChar

StartChar: Omega
Encoding: 937 937 97
Width: 1511
VWidth: 0
Flags: W
LayerCount: 2
Fore
SplineSet
754 118 m 0
 436 118 288 349 288 667 c 0
 288 998 444 1228 755 1228 c 0
 1066 1228 1220 997 1220 667 c 0
 1220 349 1072 118 754 118 c 0
754 -20 m 0
 1164 -20 1395 257 1395 667 c 0
 1395 1092 1156 1366 755 1366 c 0
 347 1366 114 1095 114 668 c 0
 114 251 339 -20 754 -20 c 0
20 1346 m 0
EndSplineSet
EndChar

StartChar: Omegatonos
Encoding: 911 911 98
Width: 484
VWidth: 0
Flags: W
LayerCount: 2
Fore
SplineSet
229 485 m 0
 307 485 346 542 346 600 c 0
 346 658 307 715 229 715 c 0
 152 715 113 658 113 600 c 0
 113 542 152 485 229 485 c 0
EndSplineSet
EndChar

StartChar: Omicron
Encoding: 927 927 99
Width: 1571
VWidth: 0
Flags: W
LayerCount: 2
Fore
SplineSet
766 56 m 0
 395 56 220 319 220 666 c 0
 220 1031 408 1293 767 1293 c 0
 1127 1293 1310 1029 1310 666 c 0
 1310 319 1137 56 766 56 c 0
767 -23 m 0
 1190 -23 1400 268 1400 664 c 0
 1400 1083 1176 1371 768 1371 c 0
 347 1371 132 1087 132 666 c 0
 132 259 335 -23 767 -23 c 0
EndSplineSet
EndChar

StartChar: Omicrontonos
Encoding: 908 908 100
Width: 484
VWidth: 0
Flags: W
LayerCount: 2
Fore
SplineSet
229 485 m 0
 307 485 346 542 346 600 c 0
 346 658 307 715 229 715 c 0
 152 715 113 658 113 600 c 0
 113 542 152 485 229 485 c 0
EndSplineSet
EndChar

StartChar: Oslash
Encoding: 216 216 101
Width: 1654
VWidth: 0
Flags: W
LayerCount: 2
Fore
SplineSet
553 -154 m 1
 610 2 l 1
 672 -16 741 -26 820 -26 c 0
 1291 -26 1484 307 1484 729 c 0
 1484 1047 1378 1286 1163 1405 c 1
 1234 1586 l 1
 1109 1626 l 1
 1045 1455 l 1
 978 1475 899 1486 817 1486 c 0
 370 1486 153 1183 153 728 c 0
 153 422 257 163 494 44 c 1
 433 -119 l 1
 553 -154 l 1
538 160 m 1
 349 264 257 484 257 735 c 0
 257 1078 442 1364 817 1364 c 0
 886 1364 945 1356 1003 1338 c 1
 538 160 l 1
817 101 m 0
 756 101 706 106 654 121 c 1
 1120 1294 l 1
 1291 1184 1375 978 1375 746 c 0
 1375 393 1197 101 817 101 c 0
827 1349 m 0
EndSplineSet
EndChar

StartChar: P
Encoding: 80 80 104
Width: 1164
VWidth: 0
Flags: W
LayerCount: 2
Fore
SplineSet
214 0 m 1
 328 0 l 1
 328 707 l 1
 275 668 l 1
 650 668 l 2
 938 668 1064 792 1064 1029 c 0
 1064 1261 891 1354 655 1354 c 2
 214 1354 l 1
 214 0 l 1
652 756 m 2
 274 756 l 1
 328 721 l 1
 328 1317 l 1
 274 1266 l 1
 648 1266 l 2
 821 1266 950 1211 950 1030 c 0
 950 820 847 756 652 756 c 2
EndSplineSet
EndChar

StartChar: Phi
Encoding: 934 934 105
Width: 1611
VWidth: 0
Flags: W
LayerCount: 2
Fore
SplineSet
721 0 m 1
 871 0 l 1
 871 156 l 1
 1265 178 1468 407 1468 701 c 0
 1468 999 1256 1208 871 1231 c 1
 871 1355 l 1
 721 1355 l 1
 721 1231 l 1
 343 1207 126 999 126 701 c 0
 126 409 328 181 721 156 c 1
 721 0 l 1
721 279 m 1
 422 304 287 483 287 701 c 0
 287 926 433 1084 721 1108 c 1
 721 279 l 1
871 279 m 1
 871 1108 l 1
 1163 1085 1308 927 1308 701 c 0
 1308 483 1176 303 871 279 c 1
EndSplineSet
EndChar

StartChar: Pi
Encoding: 928 928 106
Width: 1374
VWidth: 0
Flags: W
LayerCount: 2
Fore
SplineSet
144 0 m 1
 295 0 l 1
 295 1228 l 1
 1071 1228 l 1
 1071 0 l 1
 1220 0 l 1
 1220 1355 l 1
 144 1355 l 1
 144 0 l 1
EndSplineSet
EndChar

StartChar: Psi
Encoding: 936 936 107
Width: 484
VWidth: 0
Flags: W
LayerCount: 2
Fore
SplineSet
229 485 m 0
 307 485 346 542 346 600 c 0
 346 658 307 715 229 715 c 0
 152 715 113 658 113 600 c 0
 113 542 152 485 229 485 c 0
EndSplineSet
EndChar

StartChar: Q
Encoding: 81 81 108
Width: 1553
VWidth: 0
Flags: W
LayerCount: 2
Fore
SplineSet
1185 -382 m 1
 1248 -321 l 1
 1173 -243 1045 -85 996 20 c 1
 906 8 l 1
 991 -159 1137 -328 1185 -382 c 1
EndSplineSet
Refer: 87 79 N 1 0 0 1 0 0 2
EndChar

StartChar: R
Encoding: 82 82 109
Width: 1341
VWidth: 0
Flags: W
LayerCount: 2
Fore
SplineSet
214 0 m 1
 328 0 l 1
 328 715 l 1
 275 675 l 1
 859 675 l 1
 785 727 l 1
 900 472 l 1
 1099 0 l 1
 1215 0 l 1
 984 520 l 1
 889 752 l 1
 884 686 l 1
 1070 717 1158 821 1158 1022 c 0
 1158 1232 1052 1354 775 1354 c 2
 214 1354 l 1
 214 0 l 1
328 725 m 1
 328 1315 l 1
 273 1266 l 1
 773 1266 l 2
 987 1266 1049 1177 1049 1021 c 0
 1049 834 997 765 736 765 c 2
 275 765 l 1
 328 725 l 1
678 1349 m 0
678 0 m 0
EndSplineSet
EndChar

StartChar: Rho
Encoding: 929 929 113
Width: 1154
VWidth: 0
Flags: W
LayerCount: 2
Fore
SplineSet
142 0 m 1
 232 0 l 1
 232 642 l 1
 302 636 410 626 469 626 c 0
 767 626 927 758 927 1019 c 0
 927 1237 733 1349 506 1349 c 2
 142 1349 l 1
 142 0 l 1
503 715 m 0
 429 715 211 732 232 731 c 1
 232 1253 l 1
 498 1253 l 2
 672 1253 837 1194 837 1019 c 0
 837 795 704 715 503 715 c 0
EndSplineSet
EndChar

StartChar: S
Encoding: 83 83 114
Width: 1125
VWidth: 0
Flags: W
LayerCount: 2
Fore
SplineSet
566 -18 m 0
 807 -18 998 71 1013 343 c 0
 1026 583 864 647 684 720 c 2
 471 806 l 2
 312 870 260 916 266 1049 c 0
 274 1233 438 1282 592 1282 c 0
 759 1282 875 1203 902 1184 c 1
 954 1255 l 1
 894 1306 756 1372 604 1372 c 0
 397 1372 174 1311 160 1044 c 0
 151 865 266 786 441 717 c 2
 663 630 l 2
 865 551 920 497 913 339 c 0
 904 146 782 72 571 72 c 0
 385 72 282 136 191 205 c 1
 146 125 l 1
 193 84 309 -18 566 -18 c 0
582 1349 m 0
582 0 m 0
EndSplineSet
EndChar

StartChar: Sigma
Encoding: 931 931 120
Width: 1123
VWidth: 0
Flags: W
LayerCount: 2
Fore
SplineSet
142 0 m 1
 933 0 l 1
 940 86 l 1
 232 86 l 1
 232 651 l 1
 874 651 l 1
 874 740 l 1
 232 740 l 1
 232 1263 l 1
 943 1263 l 1
 947 1349 l 1
 142 1349 l 1
 142 0 l 1
EndSplineSet
EndChar

StartChar: T
Encoding: 84 84 121
Width: 1065
VWidth: 0
Flags: W
LayerCount: 2
Fore
SplineSet
473 0 m 1
 587 0 l 1
 587 1315 l 1
 547 1272 l 1
 1011 1272 l 1
 1011 1354 l 1
 54 1354 l 1
 54 1272 l 1
 513 1272 l 1
 473 1313 l 1
 473 0 l 1
536 675 m 0
536 0 m 0
536 1349 m 0
EndSplineSet
EndChar

StartChar: Tau
Encoding: 932 932 122
Width: 1260
VWidth: 0
Flags: W
LayerCount: 2
Fore
SplineSet
537 0 m 1
 627 0 l 1
 627 1263 l 1
 1062 1263 l 1
 1062 1349 l 1
 98 1349 l 1
 98 1263 l 1
 537 1263 l 1
 537 0 l 1
EndSplineSet
EndChar

StartChar: Tbar
Encoding: 358 358 123
Width: 1131
VWidth: 0
Flags: W
LayerCount: 2
Fore
SplineSet
484 0 m 1
 645 0 l 1
 645 483 l 1
 793 483 l 1
 793 595 l 1
 645 595 l 1
 645 1220 l 1
 1053 1220 l 1
 1053 1361 l 1
 77 1361 l 1
 77 1220 l 1
 484 1220 l 1
 484 595 l 1
 330 595 l 1
 330 483 l 1
 484 483 l 1
 484 0 l 1
EndSplineSet
EndChar

StartChar: Theta
Encoding: 920 920 125
Width: 484
VWidth: 0
Flags: W
LayerCount: 2
Fore
SplineSet
229 485 m 0
 307 485 346 542 346 600 c 0
 346 658 307 715 229 715 c 0
 152 715 113 658 113 600 c 0
 113 542 152 485 229 485 c 0
EndSplineSet
EndChar

StartChar: Thorn
Encoding: 222 222 126
Width: 1250
VWidth: 0
Flags: W
LayerCount: 2
Fore
SplineSet
123 -11 m 1
 244 -11 l 1
 244 323 l 1
 204 323 655 312 666 312 c 0
 1010 312 1075 494 1075 720 c 0
 1075 1003 929 1094 576 1094 c 2
 244 1094 l 1
 244 1384 l 1
 123 1384 l 1
 123 -11 l 1
243 412 m 1
 244 989 l 1
 592 989 l 2
 886 989 970 897 970 703 c 0
 970 544 908 412 639 412 c 2
 243 412 l 1
EndSplineSet
EndChar

StartChar: U
Encoding: 85 85 127
Width: 1378
VWidth: 0
Flags: W
LayerCount: 2
Fore
SplineSet
688 -18 m 0
 1055 -18 1214 210 1214 499 c 2
 1214 1354 l 1
 1100 1354 l 1
 1100 498 l 2
 1100 222 963 72 688 72 c 0
 398 72 278 223 278 499 c 2
 278 1354 l 1
 164 1354 l 1
 164 502 l 2
 164 213 323 -18 688 -18 c 0
1207 10 m 0
692 1349 m 0
EndSplineSet
EndChar

StartChar: Upsilon
Encoding: 933 933 137
Width: 1359
VWidth: 0
Flags: W
LayerCount: 2
Fore
SplineSet
598 0 m 1
 709 0 l 1
 709 538 l 1
 1183 1349 l 1
 1089 1349 l 1
 652 615 l 1
 216 1349 l 1
 123 1349 l 1
 598 534 l 1
 598 0 l 1
EndSplineSet
EndChar

StartChar: Upsilontonos
Encoding: 910 910 138
Width: 484
VWidth: 0
Flags: W
LayerCount: 2
Fore
SplineSet
229 485 m 0
 307 485 346 542 346 600 c 0
 346 658 307 715 229 715 c 0
 152 715 113 658 113 600 c 0
 113 542 152 485 229 485 c 0
EndSplineSet
EndChar

StartChar: V
Encoding: 86 86 141
Width: 1262
VWidth: 0
Flags: W
LayerCount: 2
Fore
SplineSet
597 0 m 1
 666 0 l 1
 1194 1354 l 1
 1081 1354 l 1
 744 455 l 1
 604 90 l 1
 658 90 l 1
 519 450 l 1
 182 1354 l 1
 68 1354 l 1
 597 0 l 1
EndSplineSet
EndChar

StartChar: W
Encoding: 87 87 142
Width: 1956
VWidth: 0
Flags: W
LayerCount: 2
Fore
SplineSet
496 0 m 1
 607 0 l 1
 1004 1272 l 1
 957 1272 l 1
 1352 0 l 1
 1466 0 l 1
 1892 1353 l 1
 1783 1353 l 1
 1391 76 l 1
 1431 76 l 1
 1037 1315 l 1
 920 1315 l 1
 529 78 l 1
 568 78 l 1
 169 1353 l 1
 64 1353 l 1
 496 0 l 1
978 1349 m 0
EndSplineSet
EndChar

StartChar: X
Encoding: 88 88 147
Width: 1266
VWidth: 0
Flags: W
LayerCount: 2
Fore
SplineSet
1032 0 m 1
 1132 0 l 1
 237 1354 l 1
 134 1354 l 1
 1032 0 l 1
150 0 m 1
 255 0 l 1
 649 619 l 1
 691 650 l 1
 1132 1354 l 1
 1020 1354 l 1
 639 726 l 1
 585 689 l 1
 150 0 l 1
EndSplineSet
EndChar

StartChar: Xi
Encoding: 926 926 148
Width: 484
VWidth: 0
Flags: W
LayerCount: 2
Fore
SplineSet
229 485 m 0
 307 485 346 542 346 600 c 0
 346 658 307 715 229 715 c 0
 152 715 113 658 113 600 c 0
 113 542 152 485 229 485 c 0
EndSplineSet
EndChar

StartChar: Y
Encoding: 89 89 149
Width: 1146
VWidth: 0
Flags: W
LayerCount: 2
Fore
SplineSet
534 0 m 1
 648 0 l 1
 648 624 l 1
 609 501 l 1
 1084 1354 l 1
 978 1354 l 1
 569 604 l 1
 614 604 l 1
 167 1354 l 1
 62 1354 l 1
 578 495 l 1
 534 625 l 1
 534 0 l 1
586 1349 m 0
EndSplineSet
EndChar

StartChar: Z
Encoding: 90 90 154
Width: 1131
VWidth: 0
Flags: W
LayerCount: 2
Fore
SplineSet
136 0 m 1
 1008 0 l 1
 1019 88 l 1
 202 88 l 1
 221 44 l 1
 1013 1271 l 1
 1004 1354 l 1
 178 1354 l 1
 178 1266 l 1
 941 1266 l 1
 914 1297 l 1
 136 93 l 1
 136 0 l 1
609 1349 m 0
EndSplineSet
EndChar

StartChar: Zeta
Encoding: 918 918 158
Width: 1234
VWidth: 0
Flags: W
LayerCount: 2
Fore
SplineSet
142 0 m 1
 1035 0 l 1
 1042 87 l 1
 242 87 l 1
 1036 1279 l 1
 1036 1349 l 1
 170 1349 l 1
 171 1261 l 1
 919 1261 l 1
 142 92 l 1
 142 0 l 1
EndSplineSet
EndChar

StartChar: a
Encoding: 97 97 159
Width: 1076
VWidth: 0
Flags: W
LayerCount: 2
Fore
SplineSet
425 -14 m 0
 546 -14 705 16 828 198 c 1
 795 198 l 1
 818 4 l 1
 898 4 l 1
 898 656 l 2
 898 918 742 1005 519 1005 c 0
 406 1005 257 968 182 923 c 1
 190 900 209 864 219 842 c 1
 308 891 438 919 539 919 c 0
 710 919 787 828 787 676 c 2
 787 544 l 1
 817 577 l 1
 596 577 l 2
 256 577 118 465 118 256 c 0
 118 81 245 -14 425 -14 c 0
415 72 m 0
 325 72 230 126 230 257 c 0
 230 412 294 500 617 500 c 2
 817 500 l 1
 787 532 l 1
 787 221 l 1
 817 329 l 1
 715 134 577 72 415 72 c 0
936 10 m 0
519 986 m 0
EndSplineSet
EndChar

StartChar: acute
Encoding: 180 180 163
Width: 611
VWidth: 0
Flags: W
LayerCount: 2
Fore
SplineSet
81 1176 m 1
 145 1176 l 1
 441 1523 l 1
 258 1523 l 1
 81 1176 l 1
261 986 m 0
EndSplineSet
EndChar

StartChar: alpha
Encoding: 945 945 167
Width: 484
VWidth: 0
Flags: W
LayerCount: 2
Fore
SplineSet
229 485 m 0
 307 485 346 542 346 600 c 0
 346 658 307 715 229 715 c 0
 152 715 113 658 113 600 c 0
 113 542 152 485 229 485 c 0
243 986 m 0
EndSplineSet
EndChar

StartChar: alphatonos
Encoding: 940 940 168
Width: 484
VWidth: 0
Flags: W
LayerCount: 2
Fore
SplineSet
229 485 m 0
 307 485 346 542 346 600 c 0
 346 658 307 715 229 715 c 0
 152 715 113 658 113 600 c 0
 113 542 152 485 229 485 c 0
EndSplineSet
EndChar

StartChar: ampersand
Encoding: 38 38 170
Width: 1256
VWidth: 0
Flags: W
LayerCount: 2
Fore
SplineSet
536 -34 m 0
 745 -34 890 32 1001 127 c 1
 1123 -19 l 1
 1204 4 1137 -4 1217 24 c 1
 1072 220 l 1
 1130 289 1174 363 1207 443 c 1
 1142 511 l 1
 1109 430 1069 356 1012 300 c 1
 592 737 l 1
 790 823 924 928 924 1081 c 0
 924 1257 773 1352 574 1352 c 0
 333 1352 214 1228 214 1065 c 0
 214 944 271 876 385 757 c 1
 181 660 68 537 68 339 c 0
 68 134 172 -34 536 -34 c 0
547 82 m 0
 305 82 181 191 181 349 c 0
 181 495 298 602 464 681 c 1
 667 475 716 421 917 216 c 1
 817 137 703 82 547 82 c 0
516 805 m 1
 419 892 352 961 352 1059 c 0
 352 1175 442 1247 574 1247 c 0
 684 1247 789 1186 789 1065 c 0
 789 938 668 875 516 805 c 1
EndSplineSet
EndChar

StartChar: approxequal
Encoding: 8776 8776 172
Width: 1197
VWidth: 0
Flags: W
LayerCount: 2
Fore
SplineSet
118 322 m 1
 203 354 l 1
 229 470 281 539 381 539 c 0
 430 539 490 505 555 460 c 1
 667 386 749 354 815 354 c 0
 985 354 1025 458 1043 642 c 1
 953 612 l 1
 946 499 899 423 810 423 c 0
 749 423 681 477 611 520 c 1
 539 566 464 612 376 612 c 0
 229 612 137 511 118 322 c 1
114 684 m 1
 203 721 l 1
 225 836 276 902 377 902 c 0
 426 902 487 870 552 825 c 0
 661 749 741 717 813 717 c 0
 977 717 1021 820 1040 1005 c 1
 949 971 l 1
 942 856 896 783 807 783 c 0
 754 783 703 813 613 872 c 1
 520 935 457 971 377 971 c 0
 231 971 132 869 114 684 c 1
EndSplineSet
EndChar

StartChar: asciicircum
Encoding: 94 94 175
Width: 1242
VWidth: 0
Flags: W
LayerCount: 2
Fore
SplineSet
175 566 m 1
 249 566 l 1
 603 1307 l 1
 983 566 l 1
 1053 566 l 1
 638 1402 l 1
 569 1402 l 1
 175 566 l 1
EndSplineSet
EndChar

StartChar: asciitilde
Encoding: 126 126 176
Width: 1127
VWidth: 0
Flags: W
LayerCount: 2
Fore
SplineSet
110 474 m 1
 157 561 240 631 325 631 c 0
 391 631 470 595 582 546 c 0
 655 513 724 488 779 488 c 0
 887 488 943 552 988 676 c 1
 957 735 l 1
 937 658 857 577 776 577 c 0
 717 577 635 620 542 659 c 1
 441 704 399 722 326 722 c 0
 214 722 131 645 91 541 c 1
 110 474 l 1
EndSplineSet
EndChar

StartChar: asterisk
Encoding: 42 42 177
Width: 1123
VWidth: 0
Flags: W
LayerCount: 2
Fore
SplineSet
354 548 m 1
 544 907 l 1
 747 549 l 1
 827 599 766 567 846 617 c 1
 715 784 640 891 603 943 c 1
 958 1024 l 1
 925 1141 l 1
 579 995 l 1
 615 1390 l 1
 485 1390 l 1
 520 995 l 1
 175 1141 l 1
 144 1024 l 1
 492 943 l 1
 257 617 l 1
 354 548 l 1
EndSplineSet
EndChar

StartChar: b
Encoding: 98 98 179
Width: 1185
VWidth: 0
Flags: W
LayerCount: 2
Fore
SplineSet
630 -18 m 0
 917 -18 1065 180 1065 486 c 0
 1065 800 929 1004 638 1004 c 0
 468 1004 327 896 267 747 c 1
 297 747 l 1
 297 985 l 1
 297 1392 l 1
 180 1382 l 1
 180 0 l 1
 268 0 l 1
 285 293 l 1
 240 291 l 1
 277 171 398 -18 630 -18 c 0
635 68 m 0
 424 68 294 223 294 506 c 1
 293 739 393 918 643 918 c 0
 878 918 951 724 951 488 c 0
 951 240 866 68 635 68 c 0
EndSplineSet
EndChar

StartChar: backslash
Encoding: 92 92 180
Width: 897
VWidth: 0
Flags: W
LayerCount: 2
Fore
SplineSet
667 -56 m 1
 746 -56 l 1
 205 1354 l 1
 127 1354 l 1
 667 -56 l 1
EndSplineSet
EndChar

StartChar: bar
Encoding: 124 124 181
Width: 209
VWidth: 0
Flags: W
LayerCount: 2
Fore
SplineSet
59 -381 m 1
 139 -381 l 1
 139 1457 l 1
 59 1457 l 1
 59 -381 l 1
EndSplineSet
EndChar

StartChar: beta
Encoding: 946 946 182
Width: 484
VWidth: 0
Flags: W
LayerCount: 2
Fore
SplineSet
229 485 m 0
 307 485 346 542 346 600 c 0
 346 658 307 715 229 715 c 0
 152 715 113 658 113 600 c 0
 113 542 152 485 229 485 c 0
EndSplineSet
EndChar

StartChar: braceleft
Encoding: 123 123 183
Width: 752
VWidth: 0
Flags: W
LayerCount: 2
Fore
SplineSet
584 -263 m 1
 584 -188 l 1
 445 -186 395 -112 395 61 c 2
 395 302 l 1
 396 402 357 530 227 566 c 1
 365 681 395 732 395 844 c 2
 395 1086 l 2
 395 1266 448 1331 584 1333 c 1
 584 1411 l 1
 406 1410 316 1292 316 1121 c 2
 316 924 l 2
 316 757 298 610 117 610 c 1
 117 532 l 1
 304 529 316 388 316 217 c 2
 316 72 l 2
 316 -130 379 -263 584 -263 c 1
EndSplineSet
EndChar

StartChar: braceright
Encoding: 125 125 184
Width: 752
VWidth: 0
Flags: W
LayerCount: 2
Fore
SplineSet
117 -263 m 1
 295 -262 385 -144 385 27 c 2
 385 224 l 2
 385 391 403 538 584 538 c 1
 584 616 l 1
 397 619 385 760 385 931 c 2
 385 1076 l 2
 385 1278 322 1411 117 1411 c 1
 117 1336 l 1
 256 1334 306 1260 306 1087 c 2
 306 846 l 1
 305 746 344 618 474 582 c 1
 336 467 306 416 306 304 c 2
 306 62 l 2
 306 -118 253 -183 117 -185 c 1
 117 -263 l 1
EndSplineSet
EndChar

StartChar: bracketleft
Encoding: 91 91 185
Width: 599
VWidth: 0
Flags: W
LayerCount: 2
Fore
SplineSet
107 -287 m 1
 506 -287 l 1
 506 -207 l 1
 200 -207 l 1
 200 1272 l 1
 506 1272 l 1
 506 1354 l 1
 107 1354 l 1
 107 -287 l 1
EndSplineSet
EndChar

StartChar: bracketright
Encoding: 93 93 186
Width: 601
VWidth: 0
Flags: W
LayerCount: 2
Fore
SplineSet
96 -287 m 1
 494 -287 l 1
 494 1354 l 1
 96 1354 l 1
 96 1272 l 1
 402 1272 l 1
 402 -207 l 1
 96 -207 l 1
 96 -287 l 1
EndSplineSet
EndChar

StartChar: breve
Encoding: 728 728 187
Width: 734
VWidth: 0
Flags: W
LayerCount: 2
Fore
SplineSet
363 1235 m 0
 446 1235 563 1292 563 1443 c 1
 505 1443 l 1
 505 1339 423 1287 363 1287 c 0
 303 1287 227 1339 227 1443 c 1
 167 1443 l 1
 167 1291 281 1235 363 1235 c 0
365 986 m 0
EndSplineSet
EndChar

StartChar: brokenbar
Encoding: 166 166 188
Width: 159
VWidth: 0
Flags: W
LayerCount: 2
Fore
SplineSet
35 -380 m 1
 116 -380 l 1
 116 250 l 1
 35 250 l 1
 35 -380 l 1
35 830 m 1
 116 830 l 1
 116 1457 l 1
 35 1457 l 1
 35 830 l 1
EndSplineSet
EndChar

StartChar: bullet
Encoding: 8226 8226 189
Width: 761
VWidth: 0
Flags: W
LayerCount: 2
Fore
SplineSet
377 415 m 0
 520 415 665 515 665 714 c 0
 665 913 524 1012 382 1012 c 0
 239 1012 96 911 96 710 c 0
 96 512 236 415 377 415 c 0
EndSplineSet
EndChar

StartChar: c
Encoding: 99 99 190
Width: 937
VWidth: 0
Flags: W
LayerCount: 2
Fore
SplineSet
579 -18 m 0
 690 -18 795 15 832 46 c 1
 804 118 l 1
 762 94 676 68 595 68 c 0
 342 68 232 265 232 483 c 0
 232 732 358 918 609 918 c 0
 624 918 699 921 794 869 c 1
 832 942 l 1
 776 975 687 1004 592 1004 c 0
 309 1004 120 784 120 483 c 0
 120 204 298 -18 579 -18 c 0
471 986 m 0
471 0 m 0
EndSplineSet
EndChar

StartChar: caron
Encoding: 711 711 192
Width: 765
VWidth: 0
Flags: W
LayerCount: 2
Fore
SplineSet
266 1179 m 1
 463 1179 l 1
 574 1542 l 1
 516 1542 l 1
 372 1186 l 1
 212 1542 l 1
 154 1542 l 1
 266 1179 l 1
364 986 m 0
EndSplineSet
EndChar

StartChar: cedilla
Encoding: 184 184 197
Width: 563
VWidth: 0
Flags: W
LayerCount: 2
Fore
SplineSet
148 -423 m 1
 236 -423 l 1
 265 -15 l 1
 239 -15 l 1
 148 -423 l 1
206 0 m 0
EndSplineSet
EndChar

StartChar: cent
Encoding: 162 162 198
Width: 1001
VWidth: 0
Flags: W
LayerCount: 2
Fore
SplineSet
575 122 m 1
 649 122 l 1
 649 226 l 1
 730 231 828 261 877 318 c 1
 854 385 l 1
 802 348 731 314 649 308 c 1
 649 1195 l 1
 708 1193 775 1179 855 1127 c 1
 882 1194 l 1
 840 1242 751 1276 649 1280 c 1
 649 1424 l 1
 575 1424 l 1
 575 1279 l 1
 281 1252 143 973 141 742 c 1
 141 512 277 250 575 226 c 1
 575 122 l 1
575 303 m 1
 368 328 233 517 233 734 c 0
 233 960 376 1163 575 1189 c 1
 575 303 l 1
EndSplineSet
EndChar

StartChar: chi
Encoding: 967 967 199
Width: 1246
VWidth: 0
Flags: W
LayerCount: 2
Fore
SplineSet
168 0 m 1
 275 0 l 1
 598 423 l 1
 925 0 l 1
 1033 0 l 1
 648 496 l 1
 1026 985 l 1
 903 985 l 1
 596 580 l 1
 286 985 l 1
 180 985 l 1
 544 500 l 1
 168 0 l 1
EndSplineSet
EndChar

StartChar: circumflex
Encoding: 710 710 200
Width: 764
VWidth: 0
Flags: W
LayerCount: 2
Fore
SplineSet
148 1199 m 1
 221 1199 l 1
 372 1483 l 1
 510 1199 l 1
 582 1199 l 1
 462 1542 l 1
 270 1542 l 1
 148 1199 l 1
365 986 m 0
EndSplineSet
EndChar

StartChar: colon
Encoding: 58 58 201
Width: 461
VWidth: 0
Flags: W
LayerCount: 2
Fore
SplineSet
157 -34 m 1
 292 -34 l 1
 292 142 l 1
 157 142 l 1
 157 -34 l 1
157 843 m 1
 292 843 l 1
 292 1023 l 1
 157 1023 l 1
 157 843 l 1
EndSplineSet
EndChar

StartChar: comma
Encoding: 44 44 202
Width: 431
VWidth: 0
Flags: W
LayerCount: 2
Fore
SplineSet
138 -266 m 1
 173 -266 l 1
 256 -42 239 -50 295 162 c 1
 292 192 l 1
 155 192 l 1
 142 -22 165 -41 138 -266 c 1
EndSplineSet
EndChar

StartChar: commaaccentcomb
Encoding: 806 806 203
Width: 278
VWidth: 0
Flags: W
LayerCount: 2
Fore
SplineSet
48 -621 m 1
 109 -621 l 1
 220 -183 l 1
 123 -183 l 1
 48 -621 l 1
134 0 m 0
EndSplineSet
EndChar

StartChar: copyright
Encoding: 169 169 204
Width: 1775
VWidth: 0
Flags: W
LayerCount: 2
Fore
SplineSet
890 253 m 0
 1006 253 1138 290 1196 327 c 1
 1170 417 l 1
 1128 384 1012 346 914 346 c 0
 649 346 552 530 552 744 c 0
 552 929 639 1124 885 1124 c 0
 984 1124 1085 1100 1135 1059 c 1
 1192 1134 l 1
 1116 1187 1018 1220 909 1220 c 0
 627 1220 447 1019 447 737 c 0
 447 460 631 253 890 253 c 0
871 30 m 0
 430 30 234 345 234 729 c 0
 234 1102 430 1419 865 1419 c 0
 1334 1419 1529 1100 1529 722 c 0
 1529 342 1337 30 871 30 c 0
871 -40 m 0
 1248 -40 1618 179 1618 726 c 0
 1618 1269 1243 1486 865 1486 c 0
 521 1486 146 1272 146 726 c 0
 146 179 527 -40 871 -40 c 0
EndSplineSet
EndChar

StartChar: currency
Encoding: 164 164 205
Width: 1303
VWidth: 0
Flags: W
LayerCount: 2
Fore
SplineSet
1069 212 m 1
 1109 258 l 1
 941 423 l 1
 994 488 1025 569 1025 660 c 0
 1025 743 995 824 940 897 c 1
 1110 1060 l 1
 1069 1107 l 1
 897 945 l 1
 829 1004 741 1037 645 1037 c 0
 549 1037 461 1007 391 946 c 1
 220 1107 l 1
 175 1063 l 1
 349 897 l 1
 295 830 263 747 263 660 c 0
 263 572 294 492 349 423 c 1
 176 260 l 1
 220 213 l 1
 392 375 l 1
 461 315 548 284 645 284 c 0
 742 284 828 315 897 374 c 1
 1069 212 l 1
645 353 m 0
 470 353 329 490 329 660 c 0
 329 830 470 968 645 968 c 0
 820 968 960 829 960 660 c 0
 960 491 821 353 645 353 c 0
EndSplineSet
EndChar

StartChar: d
Encoding: 100 100 206
Width: 1177
VWidth: 0
Flags: W
LayerCount: 2
Fore
SplineSet
551 -18 m 0
 771 -18 875 134 924 292 c 1
 891 296 l 1
 906 0 l 1
 997 0 l 1
 997 1392 l 1
 883 1382 l 1
 883 1067 l 1
 894 711 l 1
 923 716 l 1
 862 860 786 1004 548 1004 c 0
 280 1004 120 797 120 499 c 0
 120 185 264 -18 551 -18 c 0
547 68 m 0
 315 68 234 261 234 497 c 0
 234 745 326 918 554 918 c 0
 762 918 886 753 886 482 c 0
 886 249 794 68 547 68 c 0
566 492 m 0
EndSplineSet
EndChar

StartChar: dagger
Encoding: 8224 8224 207
Width: 874
VWidth: 0
Flags: W
LayerCount: 2
Fore
SplineSet
393 115 m 1
 462 115 l 1
 462 1006 l 1
 722 1006 l 1
 722 1042 l 1
 456 1042 l 1
 456 1461 l 1
 393 1461 l 1
 393 1042 l 1
 128 1042 l 1
 128 1006 l 1
 393 1006 l 1
 393 115 l 1
EndSplineSet
EndChar

StartChar: daggerdbl
Encoding: 8225 8225 208
Width: 959
VWidth: 0
Flags: W
LayerCount: 2
Fore
SplineSet
438 198 m 1
 502 198 l 1
 502 484 l 1
 799 484 l 1
 799 584 l 1
 502 584 l 1
 503 1031 l 1
 807 1031 l 1
 807 1127 l 1
 503 1127 l 1
 503 1465 l 1
 438 1465 l 1
 438 1127 l 1
 141 1127 l 1
 141 1031 l 1
 438 1031 l 1
 438 584 l 1
 135 584 l 1
 135 484 l 1
 438 484 l 1
 438 198 l 1
EndSplineSet
EndChar

StartChar: dblgravecmb
Encoding: 783 783 209
Width: 642
VWidth: 0
Flags: W
LayerCount: 2
Fore
SplineSet
319 1187 m 1
 352 1187 l 1
 177 1481 l 1
 143 1481 l 1
 319 1187 l 1
500 1187 m 1
 519 1187 l 1
 366 1481 l 1
 321 1481 l 1
 500 1187 l 1
331 986 m 0
EndSplineSet
EndChar

StartChar: dcroat
Encoding: 273 273 211
Width: 1193
VWidth: 0
Flags: W
LayerCount: 2
Fore
SplineSet
565 -21 m 0
 702 -21 829 45 884 163 c 1
 901 0 l 1
 1058 0 l 1
 1058 1431 l 1
 884 1417 l 1
 884 1053 l 2
 884 991 884 928 888 862 c 1
 822 955 696 1019 564 1019 c 0
 304 1019 126 807 126 504 c 0
 126 198 286 -21 565 -21 c 0
128 1118 m 1
 591 1118 l 1
 591 1220 l 1
 128 1220 l 1
 128 1118 l 1
592 108 m 0
 398 108 301 265 301 499 c 0
 301 738 401 891 592 891 c 0
 807 891 884 741 884 482 c 0
 884 252 798 108 592 108 c 0
EndSplineSet
EndChar

StartChar: degree
Encoding: 176 176 212
Width: 780
VWidth: 0
Flags: W
LayerCount: 2
Fore
SplineSet
380 926 m 0
 268 926 182 1022 182 1127 c 0
 182 1232 270 1327 380 1327 c 0
 493 1327 580 1232 580 1127 c 0
 580 1024 493 926 380 926 c 0
379 832 m 0
 519 832 659 964 659 1123 c 0
 659 1287 516 1415 379 1415 c 0
 246 1415 102 1287 102 1123 c 0
 102 956 248 832 379 832 c 0
EndSplineSet
EndChar

StartChar: delta
Encoding: 948 948 213
Width: 484
VWidth: 0
Flags: W
LayerCount: 2
Fore
SplineSet
229 485 m 0
 307 485 346 542 346 600 c 0
 346 658 307 715 229 715 c 0
 152 715 113 658 113 600 c 0
 113 542 152 485 229 485 c 0
EndSplineSet
EndChar

StartChar: dieresis
Encoding: 168 168 214
Width: 716
VWidth: 0
Flags: W
LayerCount: 2
Fore
SplineSet
140 1155 m 1
 241 1155 l 1
 241 1314 l 1
 140 1314 l 1
 140 1155 l 1
479 1155 m 1
 581 1155 l 1
 581 1314 l 1
 479 1314 l 1
 479 1155 l 1
361 986 m 0
EndSplineSet
EndChar

StartChar: dieresistonos
Encoding: 901 901 215
Width: 439
VWidth: 0
Flags: W
LayerCount: 2
Fore
SplineSet
217 485 m 0
 295 485 333 542 333 600 c 0
 333 658 295 715 217 715 c 0
 140 715 101 658 101 600 c 0
 101 542 140 485 217 485 c 0
217 986 m 0
EndSplineSet
EndChar

StartChar: divide
Encoding: 247 247 216
Width: 996
VWidth: 0
Flags: W
LayerCount: 2
Fore
SplineSet
416 21 m 1
 523 21 l 1
 523 193 l 1
 416 193 l 1
 416 21 l 1
61 497 m 1
 914 497 l 1
 914 600 l 1
 61 600 l 1
 61 497 l 1
416 892 m 1
 571 892 l 1
 571 1070 l 1
 416 1070 l 1
 416 892 l 1
EndSplineSet
EndChar

StartChar: dotaccent
Encoding: 729 729 217
Width: 299
VWidth: 0
Flags: W
LayerCount: 2
Fore
SplineSet
93 1215 m 1
 212 1215 l 1
 212 1374 l 1
 93 1374 l 1
 93 1215 l 1
152 986 m 0
EndSplineSet
EndChar

StartChar: dotlessi
Encoding: 305 305 218
Width: 363
VWidth: 0
Flags: W
LayerCount: 2
Fore
SplineSet
146 0 m 1
 230 0 l 1
 230 988 l 1
 146 988 l 1
 146 0 l 1
327 10 m 0
182 986 m 0
EndSplineSet
EndChar

StartChar: e
Encoding: 101 101 219
Width: 1074
VWidth: 0
Flags: W
LayerCount: 2
Fore
SplineSet
581 -18 m 0
 725 -18 836 17 930 69 c 1
 896 143 l 1
 780 86 687 70 590 70 c 0
 387 70 228 194 228 511 c 1
 190 487 l 1
 947 487 l 1
 947 487 952 521 952 550 c 0
 952 827 816 1004 576 1004 c 0
 333 1004 120 812 120 485 c 0
 120 171 312 -18 581 -18 c 0
231 527 m 1
 242 754 375 918 581 918 c 0
 775 918 859 778 859 518 c 1
 905 558 l 1
 190 558 l 1
 231 527 l 1
934 10 m 0
530 0 m 0
530 986 m 0
EndSplineSet
EndChar

StartChar: eight
Encoding: 56 56 227
Width: 1120
VWidth: 0
Flags: W
LayerCount: 2
Fore
SplineSet
560 -18 m 0
 800 -18 988 95 988 329 c 0
 988 508 869 656 676 707 c 1
 845 758 956 866 956 1040 c 0
 956 1246 801 1372 561 1372 c 0
 319 1372 162 1246 162 1040 c 0
 162 868 283 747 443 704 c 1
 241 642 132 527 132 329 c 0
 132 94 323 -18 560 -18 c 0
560 72 m 0
 343 72 230 165 230 341 c 0
 230 519 374 617 560 654 c 1
 748 617 886 510 886 341 c 0
 886 156 784 72 560 72 c 0
560 746 m 1
 369 787 273 891 273 1046 c 0
 273 1193 388 1282 560 1282 c 0
 734 1282 844 1193 844 1046 c 0
 844 891 753 787 560 746 c 1
EndSplineSet
EndChar

StartChar: ellipsis
Encoding: 8230 8230 228
Width: 1354
VWidth: 0
Flags: W
LayerCount: 2
Fore
SplineSet
228 -11 m 0
 309 -11 349 49 349 109 c 0
 349 169 309 229 228 229 c 0
 147 229 107 169 107 109 c 0
 107 49 148 -11 228 -11 c 0
678 -11 m 0
 759 -11 799 49 799 109 c 0
 799 169 759 229 678 229 c 0
 597 229 557 169 557 109 c 0
 557 49 598 -11 678 -11 c 0
1127 -11 m 0
 1208 -11 1249 49 1249 109 c 0
 1249 169 1208 229 1127 229 c 0
 1046 229 1006 169 1006 109 c 0
 1006 49 1047 -11 1127 -11 c 0
EndSplineSet
EndChar

StartChar: emdash
Encoding: 8212 8212 230
Width: 2388
VWidth: 0
Flags: W
LayerCount: 2
Fore
SplineSet
168 520 m 1
 2203 520 l 1
 2203 621 l 1
 168 621 l 1
 168 520 l 1
EndSplineSet
EndChar

StartChar: endash
Encoding: 8211 8211 231
Width: 1206
VWidth: 0
Flags: W
LayerCount: 2
Fore
SplineSet
128 520 m 1
 1052 520 l 1
 1052 621 l 1
 128 621 l 1
 128 520 l 1
EndSplineSet
EndChar

StartChar: eng
Encoding: 331 331 232
Width: 1137
VWidth: 0
Flags: W
LayerCount: 2
Fore
SplineSet
594 -237 m 1
 658 -237 l 2
 893 -237 921 -100 921 172 c 2
 921 594 l 2
 921 873 830 1005 604 1005 c 0
 460 1005 354 952 288 824 c 1
 273 986 l 1
 169 986 l 1
 169 0 l 1
 283 0 l 1
 283 579 l 2
 283 607 286 634 286 668 c 1
 312 809 383 919 593 919 c 0
 767 919 807 806 807 630 c 2
 807 122 l 2
 807 -94 790 -119 617 -119 c 2
 594 -119 l 1
 594 -237 l 1
EndSplineSet
EndChar

StartChar: epsilon
Encoding: 949 949 234
Width: 484
VWidth: 0
Flags: W
LayerCount: 2
Fore
SplineSet
229 485 m 0
 307 485 346 542 346 600 c 0
 346 658 307 715 229 715 c 0
 152 715 113 658 113 600 c 0
 113 542 152 485 229 485 c 0
243 986 m 0
EndSplineSet
EndChar

StartChar: epsilontonos
Encoding: 941 941 235
Width: 484
VWidth: 0
Flags: W
LayerCount: 2
Fore
SplineSet
229 485 m 0
 307 485 346 542 346 600 c 0
 346 658 307 715 229 715 c 0
 152 715 113 658 113 600 c 0
 113 542 152 485 229 485 c 0
EndSplineSet
EndChar

StartChar: equal
Encoding: 61 61 236
Width: 1161
VWidth: 0
Flags: W
LayerCount: 2
Fore
SplineSet
148 354 m 1
 997 354 l 1
 997 442 l 1
 148 442 l 1
 148 354 l 1
146 758 m 1
 997 758 l 1
 997 843 l 1
 146 843 l 1
 146 758 l 1
EndSplineSet
EndChar

StartChar: eta
Encoding: 951 951 237
Width: 484
VWidth: 0
Flags: W
LayerCount: 2
Fore
SplineSet
229 485 m 0
 307 485 346 542 346 600 c 0
 346 658 307 715 229 715 c 0
 152 715 113 658 113 600 c 0
 113 542 152 485 229 485 c 0
243 986 m 0
EndSplineSet
EndChar

StartChar: etatonos
Encoding: 942 942 238
Width: 484
VWidth: 0
Flags: W
LayerCount: 2
Fore
SplineSet
229 485 m 0
 307 485 346 542 346 600 c 0
 346 658 307 715 229 715 c 0
 152 715 113 658 113 600 c 0
 113 542 152 485 229 485 c 0
EndSplineSet
EndChar

StartChar: eth
Encoding: 240 240 239
Width: 1231
VWidth: 0
Flags: W
LayerCount: 2
Fore
SplineSet
603 -27 m 0
 923 -27 1059 204 1059 464 c 0
 1059 587 1035 693 966 826 c 1
 903 942 794 1079 620 1261 c 1
 870 1354 l 1
 844 1436 l 1
 563 1330 l 1
 410 1490 l 1
 272 1490 l 1
 508 1288 l 1
 276 1200 l 1
 299 1112 l 1
 565 1222 l 1
 795 1002 886 868 931 769 c 1
 865 825 761 900 580 900 c 0
 319 900 148 718 148 448 c 0
 148 210 292 -27 603 -27 c 0
608 55 m 0
 369 55 262 255 262 446 c 0
 262 630 388 804 602 804 c 0
 832 804 953 604 953 430 c 0
 953 227 831 55 608 55 c 0
EndSplineSet
EndChar

StartChar: exclam
Encoding: 33 33 240
Width: 384
VWidth: 0
Flags: W
LayerCount: 2
Fore
SplineSet
171 382 m 1
 212 382 l 1
 258 1301 l 1
 258 1378 l 1
 121 1378 l 1
 121 1301 l 1
 171 382 l 1
193 -14 m 0
 273 -14 295 41 295 89 c 0
 295 137 273 191 193 191 c 0
 116 191 92 137 92 89 c 0
 92 41 116 -14 193 -14 c 0
EndSplineSet
EndChar

StartChar: exclamdown
Encoding: 161 161 241
Width: 553
VWidth: 0
Flags: W
LayerCount: 2
Fore
SplineSet
199 6 m 1
 336 6 l 1
 336 84 l 1
 282 1003 l 1
 241 1003 l 1
 199 84 l 1
 199 6 l 1
270 1192 m 0
 348 1192 373 1247 373 1294 c 0
 373 1342 348 1398 270 1398 c 0
 191 1398 169 1341 169 1294 c 0
 169 1247 192 1192 270 1192 c 0
EndSplineSet
EndChar

StartChar: f
Encoding: 102 102 242
Width: 701
VWidth: 0
Flags: W
LayerCount: 2
Fore
SplineSet
267 0 m 1
 381 0 l 1
 381 947 l 1
 341 919 l 1
 617 919 l 1
 617 986 l 1
 343 986 l 1
 381 963 l 1
 381 1065 l 2
 381 1279 444 1304 544 1304 c 0
 588 1304 650 1294 650 1294 c 1
 657 1371 l 1
 657 1371 596 1385 522 1385 c 0
 357 1385 267 1297 267 1061 c 2
 267 963 l 1
 307 989 l 1
 77 970 l 1
 72 919 l 1
 297 919 l 1
 267 949 l 1
 267 0 l 1
EndSplineSet
EndChar

StartChar: five
Encoding: 53 53 243
Width: 1120
VWidth: 0
Flags: W
LayerCount: 2
Fore
SplineSet
516 -19 m 0
 770 -19 995 130 995 433 c 0
 995 651 857 840 575 840 c 0
 479 840 398 820 306 759 c 1
 343 1265 l 1
 924 1265 l 1
 934 1354 l 1
 254 1354 l 1
 207 656 l 1
 309 647 l 1
 366 709 470 750 573 750 c 0
 804 750 881 597 881 428 c 0
 881 192 709 72 505 72 c 0
 401 72 288 104 185 168 c 1
 147 86 l 1
 262 16 393 -19 516 -19 c 0
EndSplineSet
EndChar

StartChar: four
Encoding: 52 52 244
Width: 1120
VWidth: 0
Flags: W
LayerCount: 2
Fore
SplineSet
757 0 m 1
 861 0 l 1
 861 366 l 1
 1022 366 l 1
 1032 452 l 1
 861 452 l 1
 861 1354 l 1
 767 1354 l 1
 116 480 l 1
 116 366 l 1
 757 366 l 1
 757 0 l 1
227 454 m 1
 756 1197 l 1
 756 454 l 1
 227 454 l 1
EndSplineSet
EndChar

StartChar: fraction
Encoding: 8260 8260 245
Width: 1107
VWidth: 0
Flags: W
LayerCount: 2
Fore
SplineSet
135 0 m 1
 193 0 l 1
 985 1448 l 1
 926 1448 l 1
 135 0 l 1
EndSplineSet
EndChar

StartChar: g
Encoding: 103 103 246
Width: 1200
VWidth: 0
Flags: W
LayerCount: 2
Fore
SplineSet
519 -398 m 0
 957 -398 1030 -194 1030 89 c 2
 1030 986 l 1
 923 986 l 1
 910 756 l 1
 941 756 l 1
 891 892 775 1004 580 1004 c 0
 232 1004 120 731 120 481 c 0
 120 273 243 0 566 0 c 0
 789 0 913 151 947 268 c 1
 913 266 l 1
 913 89 l 2
 913 -204 838 -304 493 -304 c 0
 433 -304 364 -301 286 -295 c 1
 295 -384 l 1
 378 -394 453 -398 519 -398 c 0
561 87 m 0
 310 87 234 326 234 490 c 0
 234 651 304 918 559 918 c 0
 813 918 916 739 916 548 c 2
 916 440 l 2
 916 267 808 87 561 87 c 0
604 986 m 0
EndSplineSet
EndChar

StartChar: gamma
Encoding: 947 947 247
Width: 484
VWidth: 0
Flags: W
LayerCount: 2
Fore
SplineSet
229 485 m 0
 307 485 346 542 346 600 c 0
 346 658 307 715 229 715 c 0
 152 715 113 658 113 600 c 0
 113 542 152 485 229 485 c 0
EndSplineSet
EndChar

StartChar: grave
Encoding: 96 96 252
Width: 689
VWidth: 0
Flags: W
LayerCount: 2
Fore
SplineSet
431 1176 m 1
 486 1176 l 1
 325 1523 l 1
 150 1523 l 1
 431 1176 l 1
318 986 m 0
EndSplineSet
EndChar

StartChar: greater
Encoding: 62 62 253
Width: 1142
VWidth: 0
Flags: W
LayerCount: 2
Fore
SplineSet
137 116 m 1
 1012 525 l 1
 1012 591 l 1
 140 1049 l 1
 140 948 l 1
 916 563 l 1
 137 215 l 1
 137 116 l 1
EndSplineSet
EndChar

StartChar: greaterequal
Encoding: 8805 8805 254
Width: 1141
VWidth: 0
Flags: W
LayerCount: 2
Fore
SplineSet
157 225 m 1
 982 674 l 1
 982 730 l 1
 162 1209 l 1
 162 1111 l 1
 920 702 l 1
 157 321 l 1
 157 225 l 1
119 10 m 1
 1007 10 l 1
 1007 108 l 1
 119 107 l 1
 119 10 l 1
EndSplineSet
EndChar

StartChar: guillemotleft
Encoding: 171 171 255
Width: 936
VWidth: 0
Flags: W
LayerCount: 2
Fore
SplineSet
376 147 m 1
 449 165 l 1
 206 506 l 1
 456 841 l 1
 379 860 l 1
 119 496 l 1
 159 453 l 1
 376 147 l 1
704 147 m 1
 756 165 l 1
 534 506 l 1
 758 841 l 1
 706 860 l 1
 442 516 l 1
 704 147 l 1
EndSplineSet
EndChar

StartChar: guillemotright
Encoding: 187 187 256
Width: 911
VWidth: 0
Flags: W
LayerCount: 2
Fore
SplineSet
188 147 m 1
 453 492 l 1
 189 860 l 1
 135 841 l 1
 359 506 l 1
 135 165 l 1
 188 147 l 1
527 147 m 1
 771 492 l 1
 530 860 l 1
 459 841 l 1
 700 506 l 1
 454 165 l 1
 527 147 l 1
EndSplineSet
EndChar

StartChar: guilsinglleft
Encoding: 8249 8249 257
Width: 597
VWidth: 0
Flags: W
LayerCount: 2
Fore
SplineSet
338 173 m 1
 406 173 l 1
 222 536 l 1
 412 891 l 1
 340 891 l 1
 144 536 l 1
 338 173 l 1
EndSplineSet
EndChar

StartChar: guilsinglright
Encoding: 8250 8250 258
Width: 607
VWidth: 0
Flags: W
LayerCount: 2
Fore
SplineSet
173 173 m 1
 244 173 l 1
 437 537 l 1
 248 891 l 1
 177 891 l 1
 362 537 l 1
 173 173 l 1
EndSplineSet
EndChar

StartChar: h
Encoding: 104 104 259
Width: 1134
VWidth: 0
Flags: W
LayerCount: 2
Fore
SplineSet
180 0 m 1
 294 0 l 1
 294 567 l 2
 294 725 361 918 621 918 c 0
 789 918 850 812 850 606 c 2
 850 0 l 1
 964 0 l 1
 964 605 l 2
 964 851 857 1004 637 1004 c 0
 454 1004 315 919 255 753 c 1
 288 743 l 1
 294 1029 l 1
 294 1392 l 1
 180 1382 l 1
 180 0 l 1
551 494 m 0
551 986 m 0
EndSplineSet
EndChar

StartChar: hbar
Encoding: 295 295 260
Width: 1196
VWidth: 0
Flags: W
LayerCount: 2
Fore
SplineSet
275 0 m 1
 358 0 l 1
 358 678 l 1
 370 779 517 924 705 924 c 0
 912 924 944 797 944 532 c 2
 944 0 l 1
 1027 0 l 1
 1027 597 l 2
 1027 829 972 1016 751 1016 c 0
 578 1016 448 948 358 828 c 1
 358 1188 l 1
 602 1188 l 1
 602 1269 l 1
 358 1269 l 1
 358 1365 l 1
 275 1347 l 1
 275 1269 l 1
 194 1269 l 1
 194 1188 l 1
 275 1188 l 1
 275 0 l 1
EndSplineSet
EndChar

StartChar: hungarumlaut
Encoding: 733 733 262
Width: 650
VWidth: 0
Flags: W
LayerCount: 2
Fore
SplineSet
111 1212 m 1
 163 1212 l 1
 327 1494 l 1
 253 1494 l 1
 111 1212 l 1
278 1212 m 1
 333 1212 l 1
 488 1494 l 1
 420 1494 l 1
 278 1212 l 1
299 986 m 0
EndSplineSet
EndChar

StartChar: hyphen
Encoding: 45 45 263
Width: 722
VWidth: 0
Flags: W
LayerCount: 2
Fore
SplineSet
138 482 m 1
 562 482 l 1
 562 573 l 1
 138 573 l 1
 138 482 l 1
EndSplineSet
EndChar

StartChar: i
Encoding: 105 105 264
Width: 470
VWidth: 0
Flags: W
LayerCount: 2
Fore
SplineSet
180 0 m 1
 294 0 l 1
 294 986 l 1
 180 986 l 1
 180 0 l 1
180 1209 m 1
 294 1209 l 1
 294 1354 l 1
 180 1354 l 1
 180 1209 l 1
EndSplineSet
EndChar

StartChar: infinity
Encoding: 8734 8734 271
Width: 1622
VWidth: 0
Flags: W
LayerCount: 2
Fore
SplineSet
432 231 m 0
 584 231 702 334 811 478 c 1
 935 313 1050 231 1188 231 c 0
 1369 231 1511 376 1511 584 c 0
 1511 782 1397 925 1190 925 c 0
 1031 925 916 822 811 678 c 1
 699 827 584 925 428 925 c 0
 249 925 106 781 106 600 c 0
 106 401 225 231 432 231 c 0
434 347 m 0
 299 347 209 463 209 581 c 0
 209 706 292 813 427 813 c 0
 558 813 661 713 746 579 c 1
 660 453 555 347 434 347 c 0
1190 347 m 0
 1074 347 989 428 877 581 c 1
 958 701 1060 813 1186 813 c 0
 1310 813 1399 718 1399 605 c 0
 1399 461 1332 347 1190 347 c 0
EndSplineSet
EndChar

StartChar: integral
Encoding: 8747 8747 272
Width: 672
VWidth: 0
Flags: W
LayerCount: 2
Fore
SplineSet
148 -390 m 0
 329 -390 384 -234 384 -23 c 2
 384 1255 l 2
 384 1393 407 1465 516 1465 c 0
 548 1465 582 1461 603 1451 c 1
 602 1577 l 1
 565 1588 538 1598 492 1598 c 0
 311 1598 253 1440 253 1229 c 2
 253 -46 l 2
 253 -184 231 -258 122 -258 c 0
 90 -258 58 -256 37 -246 c 1
 38 -372 l 1
 75 -383 102 -390 148 -390 c 0
EndSplineSet
EndChar

StartChar: iota
Encoding: 953 953 274
Width: 484
VWidth: 0
Flags: W
LayerCount: 2
Fore
SplineSet
229 485 m 0
 307 485 346 542 346 600 c 0
 346 658 307 715 229 715 c 0
 152 715 113 658 113 600 c 0
 113 542 152 485 229 485 c 0
243 986 m 0
EndSplineSet
EndChar

StartChar: iotadieresis
Encoding: 970 970 275
Width: 915
VWidth: 0
Flags: W
LayerCount: 2
Fore
SplineSet
225 1155 m 1
 325 1155 l 1
 325 1314 l 1
 225 1314 l 1
 225 1155 l 1
529 485 m 0
 607 485 645 542 645 600 c 0
 645 658 607 715 529 715 c 0
 452 715 413 658 413 600 c 0
 413 542 452 485 529 485 c 0
564 1155 m 1
 665 1155 l 1
 665 1314 l 1
 564 1314 l 1
 564 1155 l 1
EndSplineSet
EndChar

StartChar: iotadieresistonos
Encoding: 912 912 276
Width: 600
VWidth: 0
Flags: W
LayerCount: 2
Fore
SplineSet
327 485 m 0
 405 485 444 542 444 600 c 0
 444 658 405 715 327 715 c 0
 250 715 211 658 211 600 c 0
 211 542 250 485 327 485 c 0
240 826 m 0
 318 826 356 883 356 941 c 0
 356 999 318 1057 240 1057 c 0
 163 1057 124 999 124 941 c 0
 124 883 163 826 240 826 c 0
EndSplineSet
EndChar

StartChar: iotatonos
Encoding: 943 943 277
Width: 484
VWidth: 0
Flags: W
LayerCount: 2
Fore
SplineSet
229 485 m 0
 307 485 346 542 346 600 c 0
 346 658 307 715 229 715 c 0
 152 715 113 658 113 600 c 0
 113 542 152 485 229 485 c 0
EndSplineSet
EndChar

StartChar: j
Encoding: 106 106 279
Width: 501
VWidth: 0
Flags: W
LayerCount: 2
Fore
SplineSet
47 -411 m 1
 86 -411 l 2
 281 -411 331 -359 331 -139 c 2
 331 986 l 1
 215 986 l 1
 215 -84 l 2
 215 -270 214 -303 71 -303 c 2
 34 -303 l 1
 47 -411 l 1
215 1209 m 1
 331 1209 l 1
 331 1354 l 1
 215 1354 l 1
 215 1209 l 1
EndSplineSet
EndChar

StartChar: k
Encoding: 107 107 281
Width: 1021
VWidth: 0
Flags: W
LayerCount: 2
Fore
SplineSet
180 0 m 1
 294 0 l 1
 294 393 l 1
 262 328 l 1
 449 496 l 1
 394 496 l 1
 851 0 l 1
 983 0 l 1
 461 556 l 1
 461 504 l 1
 977 986 l 1
 844 986 l 1
 257 435 l 1
 288 435 l 1
 294 657 l 1
 294 1392 l 1
 180 1382 l 1
 180 0 l 1
505 0 m 0
EndSplineSet
EndChar

StartChar: kgreenlandic
Encoding: 312 312 283
Width: 1047
VWidth: 0
Flags: W
LayerCount: 2
Fore
SplineSet
130 0 m 1
 281 0 l 1
 281 373 l 1
 392 469 l 1
 757 0 l 1
 946 0 l 1
 502 555 l 1
 917 998 l 1
 724 998 l 1
 589 855 431 690 315 557 c 0
 303 544 292 532 281 520 c 1
 281 999 l 1
 130 999 l 1
 130 0 l 1
EndSplineSet
EndChar

StartChar: l
Encoding: 108 108 284
Width: 558
VWidth: 0
Flags: W
LayerCount: 2
Fore
SplineSet
432 -10 m 0
 496 -10 546 -3 566 0 c 1
 566 75 l 1
 557 74 505 68 452 68 c 0
 328 68 294 117 294 232 c 2
 294 1392 l 1
 180 1382 l 1
 180 242 l 2
 180 28 310 -10 432 -10 c 0
236 986 m 0
236 0 m 0
437 986 m 0
EndSplineSet
EndChar

StartChar: lambda
Encoding: 955 955 286
Width: 484
VWidth: 0
Flags: W
LayerCount: 2
Fore
SplineSet
229 485 m 0
 307 485 346 542 346 600 c 0
 346 658 307 715 229 715 c 0
 152 715 113 658 113 600 c 0
 113 542 152 485 229 485 c 0
EndSplineSet
EndChar

StartChar: less
Encoding: 60 60 290
Width: 1129
VWidth: 0
Flags: W
LayerCount: 2
Fore
SplineSet
978 109 m 1
 979 207 l 1
 199 563 l 1
 981 939 l 1
 981 1041 l 1
 107 592 l 1
 107 527 l 1
 978 109 l 1
EndSplineSet
EndChar

StartChar: lessequal
Encoding: 8804 8804 291
Width: 1144
VWidth: 0
Flags: W
LayerCount: 2
Fore
SplineSet
974 222 m 1
 974 319 l 1
 220 708 l 1
 974 1106 l 1
 974 1206 l 1
 160 730 l 1
 160 671 l 1
 974 222 l 1
115 10 m 1
 1010 10 l 1
 1010 107 l 1
 115 108 l 1
 115 10 l 1
EndSplineSet
EndChar

StartChar: logicalnot
Encoding: 172 172 292
Width: 1127
VWidth: 0
Flags: W
LayerCount: 2
Fore
SplineSet
918 242 m 1
 991 242 l 1
 991 738 l 1
 101 738 l 1
 101 646 l 1
 918 646 l 1
 918 242 l 1
EndSplineSet
EndChar

StartChar: lozenge
Encoding: 9674 9674 293
Width: 1096
VWidth: 0
Flags: W
LayerCount: 2
Fore
SplineSet
492 -46 m 1
 573 -46 l 1
 954 720 l 1
 580 1483 l 1
 497 1483 l 1
 116 717 l 1
 492 -46 l 1
530 49 m 1
 408 265 298 496 177 719 c 1
 299 941 419 1164 542 1382 c 1
 658 1159 775 938 894 717 c 1
 772 494 651 269 530 49 c 1
EndSplineSet
EndChar

StartChar: m
Encoding: 109 109 294
Width: 1670
VWidth: 0
Flags: W
LayerCount: 2
Fore
SplineSet
180 0 m 1
 294 0 l 1
 294 653 l 1
 329 802 439 918 589 918 c 0
 743 918 790 809 790 545 c 2
 790 0 l 1
 904 0 l 1
 904 475 l 2
 904 566 903 618 907 641 c 0
 949 848 1071 918 1189 918 c 0
 1395 918 1386 694 1386 561 c 2
 1386 0 l 1
 1500 0 l 1
 1500 639 l 2
 1500 879 1404 1004 1209 1004 c 0
 1019 1004 906 874 849 734 c 1
 879 734 l 1
 849 865 791 1004 593 1004 c 0
 437 1004 327 895 254 762 c 1
 293 751 l 1
 272 986 l 1
 180 986 l 1
 180 0 l 1
EndSplineSet
EndChar

StartChar: macron
Encoding: 175 175 295
Width: 1090
VWidth: 0
Flags: W
LayerCount: 2
Fore
SplineSet
145 1426 m 1
 933 1426 l 1
 933 1532 l 1
 145 1532 l 1
 145 1426 l 1
539 986 m 0
EndSplineSet
EndChar

StartChar: middot
Encoding: 65537 -1 296
Width: 372
VWidth: 0
Flags: W
LayerCount: 2
Fore
SplineSet
107 511 m 1
 260 511 l 1
 260 691 l 1
 107 691 l 1
 107 511 l 1
EndSplineSet
EndChar

StartChar: minus
Encoding: 8722 8722 297
Width: 1037
VWidth: 0
Flags: W
LayerCount: 2
Fore
SplineSet
68 526 m 1
 946 526 l 1
 946 629 l 1
 68 629 l 1
 68 526 l 1
EndSplineSet
EndChar

StartChar: mu
Encoding: 956 956 298
Width: 451
VWidth: 0
Flags: W
LayerCount: 2
Fore
SplineSet
223 484 m 0
 304 484 344 544 344 604 c 0
 344 664 304 724 223 724 c 0
 143 724 102 664 102 604 c 0
 102 544 143 484 223 484 c 0
EndSplineSet
EndChar

StartChar: multiply
Encoding: 215 215 299
Width: 687
VWidth: 0
Flags: W
LayerCount: 2
Fore
SplineSet
91 188 m 1
 325 485 l 1
 559 188 l 1
 630 240 l 1
 630 240 323 601 372 558 c 1
 630 874 l 1
 564 927 l 1
 325 630 l 1
 87 927 l 1
 18 873 l 1
 278 558 l 1
 18 241 l 1
 91 188 l 1
EndSplineSet
EndChar

StartChar: n
Encoding: 110 110 300
Width: 1128
VWidth: 0
Flags: W
LayerCount: 2
Fore
SplineSet
180 0 m 1
 294 0 l 1
 294 579 l 2
 294 745 361 918 621 918 c 0
 795 918 845 806 844 630 c 1
 844 0 l 1
 958 0 l 1
 958 594 l 2
 958 873 858 1004 632 1004 c 0
 437 1004 324 914 270 786 c 1
 304 786 l 1
 285 986 l 1
 180 986 l 1
 180 0 l 1
545 986 m 0
545 0 m 0
EndSplineSet
EndChar

StartChar: nine
Encoding: 57 57 304
Width: 1120
VWidth: 0
Flags: W
LayerCount: 2
Fore
SplineSet
313 -7 m 1
 437 -7 l 1
 790 420 l 1
 963 648 993 762 993 942 c 0
 993 1167 863 1372 581 1372 c 0
 315 1372 161 1178 161 957 c 0
 161 716 355 560 557 560 c 0
 727 560 810.034 625.933 859.109 687.79 c 1
 830.527 635.935 769.169 553.682 709 475 c 1
 313 -7 l 1
575 650 m 0
 381 650 258 782 258 957 c 0
 258 1121 376 1282 583 1282 c 0
 792 1282 896 1129 896 964 c 0
 896 771 766 650 575 650 c 0
EndSplineSet
EndChar

StartChar: notequal
Encoding: 8800 8800 305
Width: 1087
VWidth: 0
Flags: W
LayerCount: 2
Fore
SplineSet
306 48 m 1
 445 341 l 1
 954 341 l 1
 952 423 l 1
 479 423 l 1
 654 754 l 1
 954 754 l 1
 949 834 l 1
 689 834 l 1
 797 1111 l 1
 738 1120 l 1
 604 834 l 1
 111 834 l 1
 116 753 l 1
 568 753 l 1
 399 423 l 1
 111 423 l 1
 116 341 l 1
 357 341 l 1
 249 61 l 1
 306 48 l 1
EndSplineSet
EndChar

StartChar: nu
Encoding: 957 957 307
Width: 484
VWidth: 0
Flags: W
LayerCount: 2
Fore
SplineSet
229 485 m 0
 307 485 346 542 346 600 c 0
 346 658 307 715 229 715 c 0
 152 715 113 658 113 600 c 0
 113 542 152 485 229 485 c 0
EndSplineSet
EndChar

StartChar: numbersign
Encoding: 35 35 308
Width: 1105
VWidth: 0
Flags: W
LayerCount: 2
Fore
SplineSet
235 -26 m 1
 301 -26 l 1
 375 376 l 1
 640 376 l 1
 559 -26 l 1
 655 -26 l 1
 740 376 l 1
 842 376 l 1
 851 449 l 1
 746 449 l 1
 816 872 l 1
 913 872 l 1
 925 940 l 1
 827 940 l 1
 883 1326 l 1
 819 1326 l 1
 756 940 l 1
 494 940 l 1
 571 1326 l 1
 471 1326 l 1
 390 940 l 1
 241 940 l 1
 232 871 l 1
 374 871 l 1
 312 449 l 1
 172 449 l 1
 163 376 l 1
 302 376 l 1
 235 -26 l 1
389 449 m 1
 479 872 l 1
 743 872 l 1
 653 449 l 1
 389 449 l 1
EndSplineSet
EndChar

StartChar: o
Encoding: 111 111 309
Width: 1150
VWidth: 0
Flags: W
LayerCount: 2
Fore
SplineSet
576 68 m 0
 345 68 233 259 233 488 c 0
 233 726 345 918 576 918 c 0
 813 918 919 725 919 487 c 0
 919 259 816 68 576 68 c 0
576 -18 m 0
 844 -18 1031 203 1031 490 c 0
 1031 790 869 1004 576 1004 c 0
 291 1004 121 785 121 490 c 0
 121 200 291 -18 576 -18 c 0
575 986 m 0
EndSplineSet
EndChar

StartChar: ogonek
Encoding: 731 731 314
Width: 560
VWidth: 0
Flags: W
LayerCount: 2
Fore
SplineSet
278 -408 m 0
 319 -408 377 -395 397 -384 c 1
 397 -384 402 -301 403 -301 c 1
 331 -329 323 -330 276 -330 c 0
 240 -330 184 -298 184 -241 c 0
 184 -174 281 -104 392 -25 c 1
 290 -36 l 1
 191 -93 116 -170 116 -253 c 0
 116 -351 184 -408 278 -408 c 0
393 10 m 0
EndSplineSet
EndChar

StartChar: omega
Encoding: 969 969 319
Width: 484
VWidth: 0
Flags: W
LayerCount: 2
Fore
SplineSet
229 485 m 0
 307 485 346 542 346 600 c 0
 346 658 307 715 229 715 c 0
 152 715 113 658 113 600 c 0
 113 542 152 485 229 485 c 0
243 986 m 0
EndSplineSet
EndChar

StartChar: omegatonos
Encoding: 974 974 320
Width: 484
VWidth: 0
Flags: W
LayerCount: 2
Fore
SplineSet
229 485 m 0
 307 485 346 542 346 600 c 0
 346 658 307 715 229 715 c 0
 152 715 113 658 113 600 c 0
 113 542 152 485 229 485 c 0
EndSplineSet
EndChar

StartChar: omicron
Encoding: 959 959 321
Width: 1213
VWidth: 0
Flags: W
LayerCount: 2
Fore
SplineSet
594 69 m 0
 345 69 254 268 254 488 c 0
 254 712 346 914 595 914 c 0
 842 914 935 712 935 487 c 0
 935 268 844 69 594 69 c 0
598 -23 m 0
 865 -23 1052 203 1052 490 c 0
 1052 790 884 1005 591 1005 c 0
 306 1005 137 785 137 490 c 0
 137 200 320 -23 598 -23 c 0
606 986 m 0
EndSplineSet
EndChar

StartChar: omicrontonos
Encoding: 972 972 322
Width: 484
VWidth: 0
Flags: W
LayerCount: 2
Fore
SplineSet
229 485 m 0
 307 485 346 542 346 600 c 0
 346 658 307 715 229 715 c 0
 152 715 113 658 113 600 c 0
 113 542 152 485 229 485 c 0
EndSplineSet
EndChar

StartChar: one
Encoding: 49 49 323
Width: 1120
VWidth: 0
Flags: W
LayerCount: 2
Fore
SplineSet
193 0 m 1
 947 0 l 1
 947 88 l 1
 608 88 l 1
 652 44 l 1
 652 1354 l 1
 540 1354 l 1
 472 1306 293 1255 231 1246 c 1
 231 1153 l 1
 303 1161 497 1215 574 1274 c 1
 538 1290 l 1
 538 46 l 1
 580 88 l 1
 193 88 l 1
 193 0 l 1
EndSplineSet
EndChar

StartChar: ordfeminine
Encoding: 170 170 324
Width: 817
VWidth: 0
Flags: W
LayerCount: 2
Fore
SplineSet
372 795 m 0
 461 795 505 835 536 896 c 1
 532 819 l 1
 615 819 l 1
 606 957 607 929 607 947 c 2
 611 1246 l 1
 611 1416 519 1488 414 1488 c 0
 308 1488 231 1460 175 1342 c 1
 237 1300 l 1
 287 1400 344 1399 417 1399 c 0
 520 1399 544 1343 548 1225 c 1
 548 1212 l 1
 292 1200 176 1165 176 1003 c 0
 176 882 253 795 372 795 c 0
159 639 m 1
 638 639 l 1
 638 715 l 1
 159 715 l 1
 159 639 l 1
389 879 m 0
 302 879 245 912 245 1001 c 0
 245 1160 456 1140 548 1147 c 1
 548 1164 l 1
 573 1023 537 879 389 879 c 0
EndSplineSet
EndChar

StartChar: ordmasculine
Encoding: 186 186 325
Width: 788
VWidth: 0
Flags: W
LayerCount: 2
Fore
SplineSet
396 856 m 0
 277 856 217 962 217 1098 c 0
 217 1229 280 1340 392 1340 c 0
 508 1340 571 1230 571 1095 c 0
 571 967 510 856 396 856 c 0
396 752 m 0
 580 752 683 905 683 1097 c 0
 683 1292 580 1447 394 1447 c 0
 209 1447 103 1294 103 1101 c 0
 103 904 203 752 396 752 c 0
EndSplineSet
EndChar

StartChar: oslash
Encoding: 248 248 326
Width: 1248
VWidth: 0
Flags: W
LayerCount: 2
Fore
SplineSet
316 -281 m 1
 441 4 l 1
 493 -18 553 -29 618 -29 c 0
 908 -29 1069 230 1069 493 c 0
 1069 688 995 871 844 958 c 1
 967 1258 l 1
 904 1288 l 1
 784 987 l 1
 737 1004 678 1016 619 1016 c 0
 324 1016 150 764 150 490 c 0
 150 299 232 121 380 33 c 1
 259 -250 l 1
 316 -281 l 1
414 112 m 1
 300 194 247 342 247 481 c 0
 247 679 354 926 618 926 c 0
 669 926 713 918 752 904 c 1
 414 112 l 1
620 63 m 0
 565 63 515 72 473 90 c 1
 812 886 l 1
 929 806 973 651 973 497 c 0
 973 296 885 63 620 63 c 0
623 986 m 0
EndSplineSet
EndChar

StartChar: p
Encoding: 112 112 329
Width: 1177
VWidth: 0
Flags: W
LayerCount: 2
Fore
SplineSet
180 -449 m 1
 294 -441 l 1
 294 -81 l 1
 282 324 l 1
 249 294 l 1
 299 139 421 -18 637 -18 c 0
 905 -18 1057 188 1057 486 c 0
 1057 800 916 1004 629 1004 c 0
 442 1004 317 886 265 728 c 1
 287 723 l 1
 271 986 l 1
 180 986 l 1
 180 -449 l 1
623 68 m 0
 415 68 291 242 291 505 c 0
 291 736 389 918 635 918 c 0
 867 918 943 724 943 488 c 0
 943 240 851 68 623 68 c 0
EndSplineSet
EndChar

StartChar: paragraph
Encoding: 182 182 330
Width: 1035
VWidth: 0
Flags: W
LayerCount: 2
Fore
SplineSet
500 -151 m 1
 559 -151 l 1
 559 1375 l 1
 814 1375 l 1
 814 -151 l 1
 872 -151 l 1
 872 1375 l 1
 936 1375 l 1
 936 1461 l 1
 478 1461 l 2
 161 1461 122 1254 122 1147 c 0
 122 992 282 809 500 814 c 1
 500 -151 l 1
EndSplineSet
EndChar

StartChar: parenleft
Encoding: 40 40 331
Width: 600
VWidth: 0
Flags: W
LayerCount: 2
Fore
SplineSet
368 -247 m 1
 476 -247 l 1
 289 40 244 356 244 655 c 0
 244 925 284 1163 477 1464 c 1
 366 1464 l 1
 206 1225 129 945 129 650 c 0
 129 313 214 -33 368 -247 c 1
EndSplineSet
EndChar

StartChar: parenright
Encoding: 41 41 332
Width: 619
VWidth: 0
Flags: W
LayerCount: 2
Fore
SplineSet
130 -247 m 1
 238 -247 l 1
 392 -33 477 313 477 650 c 0
 477 945 400 1225 240 1464 c 1
 129 1464 l 1
 322 1163 362 925 362 655 c 0
 362 356 317 40 130 -247 c 1
EndSplineSet
EndChar

StartChar: partialdiff
Encoding: 8706 8706 333
Width: 1105
VWidth: 0
Flags: W
LayerCount: 2
Fore
SplineSet
476 -25 m 0
 835 -25 985 412 985 834 c 0
 985 1293 837 1503 566 1503 c 0
 454 1503 350 1465 274 1413 c 1
 286 1279 l 1
 359 1330 451 1371 544 1371 c 0
 741 1371 847 1188 847 892 c 0
 847 867 846 837 846 820 c 1
 784 923 688 980 563 980 c 0
 300 980 115 733 115 411 c 0
 115 165 225 -25 476 -25 c 0
477 108 m 0
 338 108 249 228 249 410 c 0
 249 648 397 851 586 851 c 0
 717 851 802 752 834 642 c 1
 805 349 674 108 477 108 c 0
EndSplineSet
EndChar

StartChar: percent
Encoding: 37 37 334
Width: 1657
VWidth: 0
Flags: W
LayerCount: 2
Fore
SplineSet
352 768 m 0
 238 768 179 871 179 1005 c 0
 179 1133 236 1254 352 1254 c 0
 465 1254 526 1138 526 1005 c 0
 526 878 468 768 352 768 c 0
352 662 m 0
 529 662 643 808 643 1005 c 0
 643 1206 530 1355 352 1355 c 0
 175 1355 64 1203 64 1005 c 0
 64 808 174 662 352 662 c 0
335 -4 m 1
 458 -4 l 1
 1206 1330 l 1
 1058 1330 l 1
 335 -4 l 1
1272 89 m 0
 1137 89 1067 203 1067 336 c 0
 1067 464 1136 582 1272 582 c 0
 1407 582 1478 469 1478 336 c 0
 1478 208 1408 89 1272 89 c 0
1272 -14 m 0
 1480 -14 1593 139 1593 336 c 0
 1593 537 1483 686 1272 686 c 0
 1065 686 952 534 952 336 c 0
 952 139 1062 -14 1272 -14 c 0
EndSplineSet
EndChar

StartChar: period
Encoding: 46 46 335
Width: 433
VWidth: 0
Flags: W
LayerCount: 2
Fore
SplineSet
216 -20 m 0
 295 -20 318 35 318 83 c 0
 318 131 295 186 216 186 c 0
 137 186 115 131 115 83 c 0
 115 36 138 -20 216 -20 c 0
EndSplineSet
EndChar

StartChar: periodcentered
Encoding: 183 183 336
Width: 372
VWidth: 0
Flags: W
LayerCount: 2
Fore
SplineSet
107 511 m 1
 260 511 l 1
 260 691 l 1
 107 691 l 1
 107 511 l 1
EndSplineSet
EndChar

StartChar: perthousand
Encoding: 8240 8240 337
Width: 2129
VWidth: 0
Flags: W
LayerCount: 2
Fore
SplineSet
381 836 m 0
 275 836 226 940 226 1074 c 0
 226 1200 275 1309 378 1309 c 0
 483 1309 532 1206 532 1072 c 0
 532 946 482 836 381 836 c 0
378 724 m 0
 550 724 649 873 649 1070 c 0
 649 1283 556 1419 379 1419 c 0
 204 1419 108 1273 108 1074 c 0
 108 865 205 724 378 724 c 0
246 -20 m 1
 369 -20 l 1
 1168 1408 l 1
 1025 1408 l 1
 246 -20 l 1
1017 85 m 0
 896 85 836 188 836 322 c 0
 836 448 895 555 1016 555 c 0
 1141 555 1198 455 1198 322 c 0
 1198 197 1138 85 1017 85 c 0
1015 -27 m 0
 1216 -27 1315 123 1315 320 c 0
 1315 531 1221 669 1017 669 c 0
 813 669 717 520 717 322 c 0
 717 113 815 -27 1015 -27 c 0
1722 85 m 0
 1597 85 1536 188 1536 322 c 0
 1536 448 1596 555 1720 555 c 0
 1840 555 1904 452 1904 322 c 0
 1904 195 1843 85 1722 85 c 0
1717 -27 m 0
 1918 -27 2018 123 2018 320 c 0
 2018 535 1922 669 1722 669 c 0
 1519 669 1421 520 1421 322 c 0
 1421 113 1519 -27 1717 -27 c 0
EndSplineSet
EndChar

StartChar: phi
Encoding: 966 966 338
Width: 484
VWidth: 0
Flags: W
LayerCount: 2
Fore
SplineSet
229 485 m 0
 307 485 346 542 346 600 c 0
 346 658 307 715 229 715 c 0
 152 715 113 658 113 600 c 0
 113 542 152 485 229 485 c 0
EndSplineSet
EndChar

StartChar: plus
Encoding: 43 43 339
Width: 1065
VWidth: 0
Flags: W
LayerCount: 2
Fore
SplineSet
490 145 m 1
 564 145 l 1
 564 548 l 1
 916 548 l 1
 916 627 l 1
 565 627 l 1
 565 1022 l 1
 491 1022 l 1
 491 627 l 1
 129 627 l 1
 129 548 l 1
 490 548 l 1
 490 145 l 1
EndSplineSet
EndChar

StartChar: plusminus
Encoding: 177 177 340
Width: 1122
VWidth: 0
Flags: W
LayerCount: 2
Fore
SplineSet
517 193 m 1
 589 193 l 1
 589 598 l 1
 1001 598 l 1
 1001 682 l 1
 586 682 l 1
 586 1094 l 1
 516 1094 l 1
 516 682 l 1
 107 682 l 1
 107 598 l 1
 517 598 l 1
 517 193 l 1
107 0 m 1
 1004 0 l 1
 1004 99 l 1
 107 99 l 1
 107 0 l 1
EndSplineSet
EndChar

StartChar: product
Encoding: 8719 8719 341
Width: 1335
VWidth: 0
Flags: W
LayerCount: 2
Fore
SplineSet
136 0 m 1
 298 0 l 1
 298 1221 l 1
 1039 1221 l 1
 1039 0 l 1
 1200 0 l 1
 1200 1361 l 1
 136 1361 l 1
 136 0 l 1
EndSplineSet
EndChar

StartChar: psi
Encoding: 968 968 342
Width: 484
VWidth: 0
Flags: W
LayerCount: 2
Fore
SplineSet
229 485 m 0
 307 485 346 542 346 600 c 0
 346 658 307 715 229 715 c 0
 152 715 113 658 113 600 c 0
 113 542 152 485 229 485 c 0
EndSplineSet
EndChar

StartChar: q
Encoding: 113 113 343
Width: 1219
VWidth: 0
Flags: W
LayerCount: 2
Fore
SplineSet
927 -449 m 1
 1039 -443 l 1
 1039 986 l 1
 933 986 l 1
 912 745 l 1
 936 748 l 1
 877 900 759 1004 566 1004 c 0
 282 1004 120 789 120 481 c 0
 120 192 300 -18 561 -18 c 0
 814 -18 922 139 963 288 c 1
 934 305 l 1
 927 -102 l 1
 927 -449 l 1
576 68 m 0
 341 68 232 247 232 493 c 0
 232 727 333 918 578 918 c 0
 830 918 919 746 919 530 c 1
 922 253 848 68 576 68 c 0
EndSplineSet
EndChar

StartChar: question
Encoding: 63 63 344
Width: 854
VWidth: 0
Flags: W
LayerCount: 2
Fore
SplineSet
325 374 m 1
 379 378 l 1
 517 708 700 853 700 1120 c 0
 700 1292 603 1403 390 1403 c 0
 323 1403 191 1388 115 1320 c 1
 133 1224 l 1
 171 1248 260 1296 364 1296 c 0
 496 1296 593 1254 595 1119 c 1
 595 926 300 555 325 374 c 1
375 -14 m 0
 457 -14 482 41 482 89 c 0
 482 137 457 191 375 191 c 0
 296 191 273 137 273 89 c 0
 273 42 296 -14 375 -14 c 0
EndSplineSet
EndChar

StartChar: quotedbl
Encoding: 34 34 345
Width: 551
VWidth: 0
Flags: W
LayerCount: 2
Fore
SplineSet
129 976 m 1
 167 976 l 1
 194 1392 l 1
 118 1392 l 1
 129 976 l 1
354 972 m 1
 394 972 l 1
 418 1392 l 1
 343 1392 l 1
 354 972 l 1
EndSplineSet
EndChar

StartChar: quotedblbase
Encoding: 8222 8222 346
Width: 594
VWidth: 0
Flags: W
LayerCount: 2
Fore
SplineSet
60 -235 m 1
 118 -235 l 1
 214 177 l 1
 127 177 l 1
 60 -235 l 1
330 -235 m 1
 384 -235 l 1
 486 177 l 1
 393 177 l 1
 330 -235 l 1
EndSplineSet
EndChar

StartChar: quotedblleft
Encoding: 8220 8220 347
Width: 758
VWidth: 0
Flags: W
LayerCount: 2
Fore
SplineSet
151 826 m 1
 288 1073 l 1
 323 1711 l 1
 208 1466 l 1
 151 826 l 1
438 826 m 1
 586 1073 l 1
 609 1711 l 1
 503 1466 l 1
 438 826 l 1
EndSplineSet
EndChar

StartChar: quotedblright
Encoding: 8221 8221 348
Width: 575
VWidth: 0
Flags: W
LayerCount: 2
Fore
SplineSet
75 1066 m 1
 134 1066 l 1
 246 1468 l 1
 148 1468 l 1
 75 1066 l 1
332 1071 m 1
 397 1071 l 1
 505 1468 l 1
 407 1468 l 1
 332 1071 l 1
EndSplineSet
EndChar

StartChar: quoteleft
Encoding: 8216 8216 349
Width: 466
VWidth: 0
Flags: W
LayerCount: 2
Fore
SplineSet
151 826 m 1
 292 1072 l 1
 317 1711 l 1
 211 1466 l 1
 151 826 l 1
EndSplineSet
EndChar

StartChar: quoteright
Encoding: 8217 8217 350
Width: 457
VWidth: 0
Flags: W
LayerCount: 2
Fore
SplineSet
153 1058 m 1
 212 1058 l 1
 315 1468 l 1
 227 1468 l 1
 153 1058 l 1
EndSplineSet
EndChar

StartChar: quotesinglbase
Encoding: 8218 8218 351
Width: 388
VWidth: 0
Flags: W
LayerCount: 2
Fore
SplineSet
89 -235 m 1
 150 -235 l 1
 253 177 l 1
 161 177 l 1
 89 -235 l 1
EndSplineSet
EndChar

StartChar: quotesingle
Encoding: 39 39 352
Width: 251
VWidth: 0
Flags: W
LayerCount: 2
Fore
SplineSet
88 923 m 1
 156 923 l 1
 169 1359 l 1
 78 1359 l 1
 88 923 l 1
EndSplineSet
EndChar

StartChar: r
Encoding: 114 114 353
Width: 756
VWidth: 0
Flags: W
LayerCount: 2
Fore
SplineSet
180 0 m 1
 294 0 l 1
 294 568 l 2
 294 748 430 910 605 910 c 0
 624 910 648 908 668 903 c 1
 676 993 l 1
 656 996 628 998 598 998 c 0
 469 998 332 915 256 709 c 1
 282 705 l 1
 266 986 l 1
 180 986 l 1
 180 0 l 1
350 986 m 0
350 0 m 0
EndSplineSet
EndChar

StartChar: radical
Encoding: 8730 8730 355
Width: 1160
VWidth: 0
Flags: W
LayerCount: 2
Fore
SplineSet
558 -151 m 1
 684 -151 l 1
 1085 1563 l 1
 982 1563 l 1
 858 1055 735 548 612 40 c 1
 558 209 l 1
 339 809 l 1
 102 758 l 1
 116 648 l 1
 255 676 l 1
 558 -151 l 1
EndSplineSet
EndChar

StartChar: registered
Encoding: 174 174 358
Width: 1780
VWidth: 0
Flags: W
LayerCount: 2
Fore
SplineSet
601 289 m 1
 698 289 l 1
 698 673 l 1
 900 673 l 1
 1021 588 1054 467 1159 289 c 1
 1268 289 l 1
 1047 636 1098 625 992 687 c 1
 1205 702 1268 830 1268 942 c 0
 1268 1093 1167 1190 886 1190 c 2
 601 1190 l 1
 601 289 l 1
699 777 m 1
 699 1084 l 1
 899 1084 l 2
 1064 1084 1130 1059 1130 931 c 0
 1130 809 1052 777 909 777 c 2
 699 777 l 1
872 30 m 0
 430 30 234 345 234 729 c 0
 234 1102 431 1419 865 1419 c 0
 1335 1419 1532 1100 1532 722 c 0
 1532 342 1339 30 872 30 c 0
872 -40 m 0
 1250 -40 1620 179 1620 726 c 0
 1620 1269 1244 1486 865 1486 c 0
 522 1486 146 1272 146 726 c 0
 146 179 528 -40 872 -40 c 0
EndSplineSet
EndChar

StartChar: rho
Encoding: 961 961 359
Width: 1229
VWidth: 0
Flags: W
LayerCount: 2
Fore
SplineSet
130 -449 m 1
 246 -441 l 1
 246 -81 l 2
 246 3 245 81 241 160 c 1
 306 53 456 -23 601 -23 c 0
 861 -23 1056 189 1056 481 c 0
 1056 796 885 1005 583 1005 c 0
 439 1005 307 938 255 788 c 1
 242 985 l 1
 130 985 l 1
 130 -449 l 1
588 60 m 0
 319 60 247 244 247 507 c 1
 246 740 334 920 592 920 c 0
 837 920 940 726 940 490 c 0
 940 241 828 60 588 60 c 0
EndSplineSet
EndChar

StartChar: ring
Encoding: 730 730 360
Width: 572
VWidth: 0
Flags: W
LayerCount: 2
Fore
SplineSet
286 1256 m 0
 231 1256 193 1296 193 1363 c 0
 193 1424 246 1474 286 1474 c 0
 333 1474 376 1423 376 1363 c 0
 376 1303 326 1256 286 1256 c 0
290 1213 m 0
 351 1213 442 1256 442 1363 c 0
 442 1465 354 1531 286 1531 c 0
 223 1531 131 1474 131 1363 c 0
 131 1256 221 1213 290 1213 c 0
286 986 m 0
EndSplineSet
EndChar

StartChar: s
Encoding: 115 115 361
Width: 899
VWidth: 0
Flags: W
LayerCount: 2
Fore
SplineSet
453 -18 m 0
 662 -18 784 71 789 244 c 1
 789 389 740 470 506 542 c 1
 421 569 l 1
 287 608 235 652 235 752 c 0
 235 843 321 918 483 918 c 0
 588 918 649 896 708 870 c 1
 738 955 l 1
 657 990 589 1004 471 1004 c 0
 253 1004 136 879 136 743 c 1
 137 643 191 546 379 489 c 2
 471 461 l 2
 661 403 693 349 693 245 c 0
 693 130 623 68 460 68 c 0
 320 68 238 98 187 116 c 1
 157 36 l 1
 196 17 319 -18 453 -18 c 0
458 984 m 0
458 0 m 0
EndSplineSet
EndChar

StartChar: section
Encoding: 167 167 367
Width: 927
VWidth: 0
Flags: W
LayerCount: 2
Fore
SplineSet
408 -26 m 0
 637 -26 792 74 792 253 c 0
 792 355 741 420 656 468 c 1
 741 522 802 610 802 718 c 0
 802 852 707 930 521 1006 c 1
 346 1075 291 1117 291 1193 c 0
 291 1279 371 1316 499 1316 c 0
 576 1316 653 1299 739 1260 c 1
 747 1305 755 1347 763 1392 c 1
 681 1425 611 1443 523 1443 c 0
 300 1443 147 1361 147 1189 c 0
 147 1081 196 1018 281 964 c 1
 192 918 130 833 130 725 c 0
 130 575 223 497 424 420 c 1
 582 355 647 328 647 242 c 0
 647 156 562 99 410 99 c 0
 324 99 219 124 134 168 c 1
 134 27 l 1
 207 -10 299 -26 408 -26 c 0
533 526 m 1
 481 548 l 1
 331 607 268 653 268 740 c 0
 268 817 327 874 399 905 c 1
 552 849 663 806 663 699 c 0
 663 626 605 570 533 526 c 1
EndSplineSet
EndChar

StartChar: semicolon
Encoding: 59 59 368
Width: 449
VWidth: 0
Flags: W
LayerCount: 2
Fore
SplineSet
122 -279 m 1
 183 -279 l 1
 296 134 l 1
 174 134 l 1
 122 -279 l 1
168 843 m 1
 303 843 l 1
 303 1024 l 1
 168 1024 l 1
 168 843 l 1
EndSplineSet
EndChar

StartChar: seven
Encoding: 55 55 369
Width: 1120
VWidth: 0
Flags: W
LayerCount: 2
Fore
SplineSet
353 1 m 1
 456 1 l 1
 963 1270 l 1
 963 1354 l 1
 188 1354 l 1
 214 1266 l 1
 856 1266 l 1
 353 1 l 1
EndSplineSet
EndChar

StartChar: sigma
Encoding: 963 963 370
Width: 484
VWidth: 0
Flags: W
LayerCount: 2
Fore
SplineSet
229 485 m 0
 307 485 346 542 346 600 c 0
 346 658 307 715 229 715 c 0
 152 715 113 658 113 600 c 0
 113 542 152 485 229 485 c 0
EndSplineSet
EndChar

StartChar: sigmafinal
Encoding: 962 962 371
Width: 484
VWidth: 0
Flags: W
LayerCount: 2
Fore
SplineSet
229 485 m 0
 307 485 346 542 346 600 c 0
 346 658 307 715 229 715 c 0
 152 715 113 658 113 600 c 0
 113 542 152 485 229 485 c 0
EndSplineSet
EndChar

StartChar: six
Encoding: 54 54 372
Width: 1196
VWidth: 0
Flags: W
LayerCount: 2
Fore
SplineSet
590 -18 m 0
 868 -18 1019 173 1019 403 c 0
 1019 654 849 837 640 837 c 0
 535 837 385 785 300 737 c 1
 852 1354 l 1
 725 1354 l 1
 725 1354 594 1228 473 1081 c 1
 227 787 170 658 170 434 c 0
 170 201 298 -18 590 -18 c 0
589 72 m 0
 373 72 250 243 250 412 c 0
 250 579 381 735 611 735 c 0
 813 735 916 583 916 400 c 0
 916 232 802 72 589 72 c 0
EndSplineSet
EndChar

StartChar: slash
Encoding: 47 47 373
Width: 933
VWidth: 0
Flags: W
LayerCount: 2
Fore
SplineSet
100 -218 m 1
 170 -218 l 1
 833 1314 l 1
 761 1314 l 1
 100 -218 l 1
EndSplineSet
EndChar

StartChar: sterling
Encoding: 163 163 375
Width: 1122
VWidth: 0
Flags: W
LayerCount: 2
Fore
SplineSet
136 -13 m 1
 981 -13 l 1
 996 87 l 1
 396 87 l 1
 396 629 l 1
 791 629 l 1
 791 714 l 1
 396 714 l 1
 396 884 l 2
 396 1123 456 1288 672 1288 c 0
 771 1288 857 1253 939 1187 c 1
 985 1259 l 1
 910 1323 810 1373 677 1373 c 0
 329 1373 302 1091 302 816 c 2
 302 714 l 1
 128 714 l 1
 128 630 l 1
 302 630 l 1
 302 85 l 1
 125 72 l 1
 136 -13 l 1
EndSplineSet
EndChar

StartChar: summation
Encoding: 8721 8721 376
Width: 1236
VWidth: 0
Flags: W
LayerCount: 2
Fore
SplineSet
110 -341 m 1
 1109 -341 l 1
 1109 -224 l 1
 226 -224 l 1
 847 563 l 1
 248 1326 l 1
 1075 1326 l 1
 1075 1433 l 1
 132 1433 l 1
 132 1363 l 1
 694 555 l 1
 110 -273 l 1
 110 -341 l 1
EndSplineSet
EndChar

StartChar: t
Encoding: 116 116 377
Width: 744
VWidth: 0
Flags: W
LayerCount: 2
Fore
SplineSet
486 -10 m 0
 583 -10 642 5 642 5 c 1
 642 78 l 1
 642 78 571 68 505 68 c 0
 407 68 342 106 342 265 c 2
 342 946 l 1
 312 919 l 1
 645 919 l 1
 645 986 l 1
 312 986 l 1
 342 957 l 1
 342 1240 l 1
 267 1235 l 1
 239 956 l 1
 266 987 l 1
 90 977 l 1
 90 919 l 1
 258 919 l 1
 228 947 l 1
 228 261 l 2
 228 68 336 -10 486 -10 c 0
353 494 m 0
353 0 m 0
EndSplineSet
EndChar

StartChar: tau
Encoding: 964 964 378
Width: 484
VWidth: 0
Flags: W
LayerCount: 2
Fore
SplineSet
229 485 m 0
 307 485 346 542 346 600 c 0
 346 658 307 715 229 715 c 0
 152 715 113 658 113 600 c 0
 113 542 152 485 229 485 c 0
EndSplineSet
EndChar

StartChar: tbar
Encoding: 359 359 379
Width: 815
VWidth: 0
Flags: W
LayerCount: 2
Fore
SplineSet
528 -18 m 0
 559 -18 587 -16 701 -6 c 1
 687 117 l 1
 617 112 580 107 563 107 c 0
 441 107 419 147 419 334 c 2
 419 581 l 1
 609 581 l 1
 609 695 l 1
 419 695 l 1
 419 892 l 1
 683 892 l 1
 683 999 l 1
 419 999 l 1
 419 1233 l 1
 306 1225 l 1
 266 999 l 1
 126 999 l 1
 114 892 l 1
 266 892 l 1
 266 695 l 1
 125 695 l 1
 125 581 l 1
 266 581 l 1
 266 405 l 2
 266 101 285 -18 528 -18 c 0
EndSplineSet
EndChar

StartChar: theta
Encoding: 952 952 381
Width: 484
VWidth: 0
Flags: W
LayerCount: 2
Fore
SplineSet
229 485 m 0
 307 485 346 542 346 600 c 0
 346 658 307 715 229 715 c 0
 152 715 113 658 113 600 c 0
 113 542 152 485 229 485 c 0
EndSplineSet
EndChar

StartChar: thorn
Encoding: 254 254 382
Width: 1136
VWidth: 0
Flags: W
LayerCount: 2
Fore
SplineSet
136 -418 m 1
 289 -418 l 1
 289 147 l 1
 357 31 471 -23 609 -23 c 0
 889 -23 1024 244 1024 510 c 0
 1024 800 860 1021 609 1023 c 1
 473 1023 367 965 289 849 c 1
 289 1374 l 1
 136 1374 l 1
 136 -418 l 1
592 103 m 0
 375 103 288 291 288 501 c 0
 288 710 392 897 598 897 c 0
 806 897 866 676 866 501 c 0
 866 327 805 103 592 103 c 0
EndSplineSet
EndChar

StartChar: three
Encoding: 51 51 383
Width: 1120
VWidth: 0
Flags: W
LayerCount: 2
Fore
SplineSet
513 -18 m 0
 804 -18 972 129 972 366 c 0
 972 581 837 698 655 729 c 1
 827 763 937 848 937 1048 c 0
 937 1264 737 1372 512 1372 c 0
 383 1372 247 1335 135 1266 c 1
 174 1186 l 1
 270 1247 393 1282 507 1282 c 0
 677 1282 833 1211 833 1036 c 0
 833 803 608 782 414 774 c 1
 380 774 l 1
 380 680 l 1
 406 680 385 680 412 680 c 0
 656 675 868 627 868 362 c 0
 868 160 729 72 514 72 c 0
 381 72 244 137 197 168 c 1
 156 88 l 1
 174 75 338 -18 513 -18 c 0
EndSplineSet
EndChar

StartChar: threequarters
Encoding: 190 190 384
Width: 1566
VWidth: 0
Flags: W
LayerCount: 2
Fore
SplineSet
321 582 m 0
 442 582 564 682 564 825 c 0
 564 929 524 990 436 1029 c 1
 488 1062 546 1111 546 1225 c 0
 546 1363 422 1457 319 1457 c 0
 254 1457 193 1407 155 1346 c 1
 185 1262 l 1
 239 1321 273 1359 327 1359 c 0
 393 1359 456 1323 456 1226 c 0
 456 1112 364 1084 277 1084 c 2
 267 1084 l 1
 267 985 l 1
 284 984 l 1
 396 984 476 947 476 830 c 0
 476 737 395 671 317 671 c 0
 270 671 243 703 191 766 c 1
 149 691 l 1
 190 620 248 582 321 582 c 0
1263 54 m 1
 1313 54 l 1
 1313 252 l 1
 1402 252 l 1
 1389 336 l 1
 1314 336 l 1
 1314 823 l 1
 1250 823 l 1
 905 309 l 1
 905 252 l 1
 1263 252 l 1
 1263 54 l 1
373 -13 m 1
 434 -13 l 1
 1230 1448 l 1
 1149 1448 l 1
 373 -13 l 1
986 336 m 1
 1265 709 l 1
 1262 571 1260 559 1259 336 c 1
 986 336 l 1
EndSplineSet
EndChar

StartChar: tilde
Encoding: 732 732 385
Width: 892
VWidth: 0
Flags: W
LayerCount: 2
Fore
SplineSet
158 1216 m 1
 217 1222 l 1
 222 1305 242 1307 278 1309 c 1
 235 1309 489 1222 557 1222 c 0
 614 1222 677 1186 677 1393 c 1
 614 1393 l 1
 609 1330 613 1312 565 1308 c 1
 588 1308 416 1393 309 1393 c 0
 251 1393 158 1379 158 1216 c 1
417 986 m 0
EndSplineSet
EndChar

StartChar: tonos
Encoding: 900 900 386
Width: 439
VWidth: 0
Flags: W
LayerCount: 2
Fore
SplineSet
217 485 m 0
 295 485 333 542 333 600 c 0
 333 658 295 715 217 715 c 0
 140 715 101 658 101 600 c 0
 101 542 140 485 217 485 c 0
217 986 m 0
EndSplineSet
EndChar

StartChar: trademark
Encoding: 8482 8482 387
Width: 1722
VWidth: 0
Flags: W
LayerCount: 2
Fore
SplineSet
813 527 m 1
 866 527 l 1
 866 1354 l 1
 1160 625 l 1
 1218 625 l 1
 1531 1348 l 1
 1531 527 l 1
 1589 527 l 1
 1589 1371 l 1
 1499 1371 l 1
 1196 676 l 1
 907 1371 l 1
 813 1371 l 1
 813 527 l 1
334 527 m 1
 391 527 l 1
 391 1322 l 1
 647 1322 l 1
 647 1371 l 1
 91 1371 l 1
 90 1322 l 1
 334 1322 l 1
 334 527 l 1
EndSplineSet
EndChar

StartChar: two
Encoding: 50 50 388
Width: 1120
VWidth: 0
Flags: W
LayerCount: 2
Fore
SplineSet
140 0 m 1
 945 0 l 1
 950 88 l 1
 172 88 l 1
 181 46 l 1
 701 556 l 2
 883 734 938 806 938 1012 c 0
 938 1299 651 1372 512 1372 c 0
 364 1372 216 1320 136 1269 c 1
 171 1188 l 1
 272 1247 394 1282 512 1282 c 0
 632 1282 830 1237 830 995 c 0
 830 812 756 749 623 618 c 2
 109 111 l 1
 140 0 l 1
EndSplineSet
EndChar

StartChar: u
Encoding: 117 117 389
Width: 1128
VWidth: 0
Flags: W
LayerCount: 2
Fore
SplineSet
972 10 m 0
550 986 m 0
EndSplineSet
Refer: 300 110 N -1 0 0 -1 1128 986 2
EndChar

StartChar: underscore
Encoding: 95 95 398
Width: 1007
VWidth: 0
Flags: W
LayerCount: 2
Fore
SplineSet
92 -280 m 1
 903 -280 l 1
 903 -193 l 1
 92 -193 l 1
 92 -280 l 1
EndSplineSet
EndChar

StartChar: uni00AD
Encoding: 173 173 401
Width: 1017
VWidth: 0
Flags: W
LayerCount: 2
Fore
SplineSet
126 127 m 1
 887 127 l 1
 887 219 l 1
 126 219 l 1
 126 127 l 1
EndSplineSet
EndChar

StartChar: uni00B2
Encoding: 178 178 402
Width: 683
VWidth: 0
Flags: W
LayerCount: 2
Fore
SplineSet
120 592 m 1
 558 592 l 1
 558 708 l 1
 268 708 l 1
 431 878 560 1021 560 1188 c 0
 560 1324 469 1411 350 1411 c 0
 248 1411 164 1350 128 1244 c 1
 196 1167 l 1
 228 1248 275 1296 344 1296 c 0
 416 1296 457 1252 457 1186 c 0
 457 1077 315 919 120 700 c 1
 120 592 l 1
EndSplineSet
EndChar

StartChar: uni01F1
Encoding: 497 497 433
Width: 2598
VWidth: 0
Flags: W
LayerCount: 2
Fore
SplineSet
1506 0 m 1
 2400 0 l 1
 2409 87 l 1
 1607 87 l 1
 2401 1279 l 1
 2401 1349 l 1
 1536 1349 l 1
 1537 1261 l 1
 2283 1261 l 1
 1506 92 l 1
 1506 0 l 1
230 82 m 1
 230 1265 l 1
 479 1265 l 2
 875 1265 1123 1101 1123 669 c 0
 1123 276 902 82 505 82 c 2
 230 82 l 1
141 0 m 1
 525 0 l 2
 961 0 1214 223 1214 673 c 0
 1214 1150 931 1349 496 1349 c 2
 141 1349 l 1
 141 0 l 1
EndSplineSet
EndChar

StartChar: uni0237
Encoding: 567 567 480
Width: 384
VWidth: 0
Flags: W
LayerCount: 2
Fore
SplineSet
-64 -448 m 1
 -13 -448 l 2
 193 -448 237 -397 237 -178 c 2
 237 1005 l 1
 104 1005 l 1
 104 -126 l 2
 104 -283 142 -343 -42 -343 c 2
 -95 -343 l 1
 -64 -448 l 1
192 986 m 0
EndSplineSet
EndChar

StartChar: uni02BC
Encoding: 700 700 482
Width: 551
VWidth: 0
Flags: W
LayerCount: 2
Fore
SplineSet
144 1086 m 1
 220 1086 l 1
 396 1481 l 1
 297 1481 l 1
 144 1086 l 1
EndSplineSet
EndChar

StartChar: uni0307
Encoding: 775 775 483
Width: 272
VWidth: 0
Flags: W
LayerCount: 2
Fore
SplineSet
68 1238 m 1
 187 1238 l 1
 187 1397 l 1
 68 1397 l 1
 68 1238 l 1
128 986 m 0
EndSplineSet
EndChar

StartChar: uni0311
Encoding: 785 785 484
Width: 665
VWidth: 0
Flags: W
LayerCount: 2
Fore
SplineSet
130 1222 m 1
 187 1222 l 1
 187 1328 247 1378 325 1378 c 0
 401 1378 465 1327 465 1222 c 1
 524 1222 l 1
 524 1382 420 1465 322 1465 c 0
 226 1465 130 1383 130 1222 c 1
EndSplineSet
EndChar

StartChar: uni031B
Encoding: 795 795 485
Width: 437
VWidth: 0
Flags: W
LayerCount: 2
Fore
SplineSet
190 142 m 0
 282 142 328 223 328 319 c 0
 328 364 318 411 299 456 c 1
 193 456 l 1
 207 419 220 367 220 322 c 0
 220 272 204 231 151 231 c 0
 136 231 120 233 106 233 c 1
 106 147 l 1
 134 144 164 142 190 142 c 0
EndSplineSet
EndChar

StartChar: uni0403
Encoding: 1027 1027 487
Width: 1047
VWidth: 0
Flags: W
LayerCount: 2
Fore
SplineSet
160 0 m 1
 334 0 l 1
 334 1205 l 1
 995 1205 l 1
 1008 1346 l 1
 160 1346 l 1
 160 0 l 1
EndSplineSet
EndChar

StartChar: uni0405
Encoding: 1029 1029 488
Width: 1323
VWidth: 0
Flags: W
LayerCount: 2
Fore
SplineSet
684 -22 m 0
 954 -22 1145 104 1145 401 c 0
 1145 626 988 720 807 750 c 1
 515 805 l 1
 331 845 240 913 240 1046 c 0
 240 1230 391 1294 671 1294 c 0
 839 1294 955 1275 1052 1225 c 1
 1072 1293 l 1
 1000 1344 843 1371 671 1371 c 0
 350 1371 150 1305 150 1031 c 0
 150 858 282 768 487 725 c 1
 787 660 l 1
 1017 608 1058 519 1058 390 c 0
 1058 166 926 57 694 57 c 0
 488 57 345 103 193 171 c 1
 157 97 l 1
 216 56 401 -22 684 -22 c 0
EndSplineSet
EndChar

StartChar: uni0406
Encoding: 1030 1030 489
Width: 432
VWidth: 0
Flags: W
LayerCount: 2
Fore
SplineSet
136 0 m 1
 297 0 l 1
 297 1362 l 1
 136 1362 l 1
 136 0 l 1
216 1346 m 0
EndSplineSet
EndChar

StartChar: uni0408
Encoding: 1032 1032 490
Width: 689
VWidth: 0
Flags: W
LayerCount: 2
Fore
SplineSet
195 -136 m 1
 172 -131 204 -130 181 -130 c 1
 504 -130 487 0 487 268 c 2
 487 1349 l 1
 398 1349 l 1
 398 226 l 2
 398 98 402 -19 211 -19 c 1
 228 -19 141 -21 171 -25 c 1
 195 -136 l 1
EndSplineSet
EndChar

StartChar: uni0409
Encoding: 1033 1033 491
Width: 1831
VWidth: 0
Flags: W
LayerCount: 2
Fore
SplineSet
101 -29 m 1
 102 -29 l 2
 410 -29 423 115 423 389 c 1
 431 1263 l 1
 853 1263 l 1
 832 -3 l 1
 1279 -3 l 2
 1506 -3 1627 130 1627 378 c 0
 1627 662 1506 781 1283 781 c 2
 981 781 l 1
 981 1359 l 1
 305 1359 l 1
 303 339 l 2
 303 205 301 79 116 81 c 1
 101 83 l 1
 101 -29 l 1
968 92 m 1
 968 679 l 1
 1268 679 l 2
 1403 679 1489 555 1489 377 c 0
 1489 200 1395 92 1268 92 c 2
 968 92 l 1
EndSplineSet
EndChar

StartChar: uni040A
Encoding: 1034 1034 492
Width: 1853
VWidth: 0
Flags: W
LayerCount: 2
Fore
SplineSet
160 0 m 1
 334 0 l 1
 334 630 l 1
 946 630 l 1
 946 0 l 1
 1334 0 l 2
 1664 0 1792 155 1792 393 c 0
 1792 628 1664 779 1340 779 c 2
 1120 779 l 1
 1120 1346 l 1
 946 1346 l 1
 946 768 l 1
 334 768 l 1
 334 1346 l 1
 160 1346 l 1
 160 0 l 1
1120 129 m 1
 1120 653 l 1
 1335 653 l 2
 1527 653 1627 573 1627 392 c 0
 1627 212 1529 129 1343 129 c 2
 1120 129 l 1
EndSplineSet
EndChar

StartChar: uni040F
Encoding: 1039 1039 495
Width: 1327
VWidth: 0
Flags: W
LayerCount: 2
Fore
SplineSet
601 -275 m 1
 760 -275 l 1
 760 0 l 1
 1167 0 l 1
 1167 1346 l 1
 993 1346 l 1
 993 138 l 1
 334 138 l 1
 334 1346 l 1
 160 1346 l 1
 160 0 l 1
 601 0 l 1
 601 -275 l 1
EndSplineSet
EndChar

StartChar: uni0411
Encoding: 1041 1041 496
Width: 1198
VWidth: 0
Flags: W
LayerCount: 2
Fore
SplineSet
198 0 m 1
 656 0 l 2
 1026 0 1078 181 1078 389 c 0
 1078 588 1018 766 650 766 c 2
 308 766 l 1
 308 1267 l 1
 952 1267 l 1
 952 1353 l 1
 198 1353 l 1
 198 0 l 1
308 80 m 1
 308 688 l 1
 649 688 l 2
 873 688 964 597 964 385 c 0
 964 177 875 80 662 80 c 2
 308 80 l 1
EndSplineSet
EndChar

StartChar: uni0413
Encoding: 1043 1043 498
Width: 869
VWidth: 0
Flags: W
LayerCount: 2
Fore
SplineSet
198 0 m 1
 308 0 l 1
 308 1252 l 1
 1038 1252 l 1
 1045 1353 l 1
 198 1353 l 1
 198 0 l 1
435 1349 m 0
EndSplineSet
EndChar

StartChar: uni0414
Encoding: 1044 1044 499
Width: 1368
VWidth: 0
Flags: W
LayerCount: 2
Fore
SplineSet
-38 -275 m 1
 126 -275 l 1
 126 0 l 1
 1145 0 l 1
 1145 -275 l 1
 1306 -275 l 1
 1306 138 l 1
 1152 138 l 1
 1152 1346 l 1
 321 1346 l 1
 311 1238 298 1109 289 1019 c 0
 223 353 198 199 112 138 c 1
 -38 138 l 1
 -38 -275 l 1
317 138 m 1
 391 257 410 471 456 938 c 1
 460 989 476 1142 482 1202 c 1
 482 1205 l 1
 978 1205 l 1
 978 138 l 1
 317 138 l 1
EndSplineSet
EndChar

StartChar: uni0415
Encoding: 1045 1045 500
Width: 1140
VWidth: 0
Flags: W
LayerCount: 2
Fore
SplineSet
538 1346 m 0
EndSplineSet
Refer: 29 69 N 1 0 0 1 0 0 2
EndChar

StartChar: uni0416
Encoding: 1046 1046 501
Width: 1851
VWidth: 0
Flags: W
LayerCount: 2
Fore
SplineSet
95 0 m 1
 304 0 l 1
 832 599 l 1
 832 0 l 1
 1006 0 l 1
 1006 600 l 1
 1535 0 l 1
 1744 0 l 1
 1147 668 l 1
 1673 1346 l 1
 1477 1346 l 1
 1006 733 l 1
 1006 1346 l 1
 832 1346 l 1
 832 735 l 1
 362 1346 l 1
 166 1346 l 1
 692 668 l 1
 95 0 l 1
EndSplineSet
EndChar

StartChar: uni041B
Encoding: 1051 1051 502
Width: 1248
VWidth: 0
Flags: W
LayerCount: 2
Fore
SplineSet
-30 -46 m 1
 323 -10 337 123 378 939 c 0
 380 991 389 1148 391 1205 c 1
 914 1205 l 1
 914 0 l 1
 1088 0 l 1
 1088 1346 l 1
 224 1346 l 1
 219 1238 212 1109 207 1019 c 0
 160 94 145 144 -60 91 c 1
 -30 -46 l 1
EndSplineSet
EndChar

StartChar: uni041F
Encoding: 1055 1055 504
Width: 1436
VWidth: 0
Flags: W
LayerCount: 2
Fore
SplineSet
198 0 m 1
 308 0 l 1
 308 1252 l 1
 1111 1252 l 1
 1111 0 l 1
 1221 0 l 1
 1221 1353 l 1
 198 1353 l 1
 198 0 l 1
EndSplineSet
EndChar

StartChar: uni0423
Encoding: 1059 1059 506
Width: 1248
VWidth: 0
Flags: W
LayerCount: 2
Fore
SplineSet
390 0 m 1
 577 0 l 1
 1217 1346 l 1
 1029 1346 l 1
 670 580 l 1
 255 1346 l 1
 64 1346 l 1
 567 424 l 1
 390 0 l 1
624 1346 m 0
EndSplineSet
EndChar

StartChar: uni0424
Encoding: 1060 1060 507
Width: 1543
VWidth: 0
Flags: W
LayerCount: 2
Fore
SplineSet
715 0 m 1
 789 0 l 1
 789 95 l 1
 1200 131 1421 313 1421 670 c 0
 1421 1032 1203 1219 789 1255 c 1
 789 1378 l 1
 715 1378 l 1
 716 1252 l 1
 298 1204 107 1004 107 670 c 0
 107 342 295 145 716 97 c 1
 715 0 l 1
716 194 m 1
 372 239 217 398 217 672 c 0
 217 949 370 1112 716 1157 c 1
 716 194 l 1
789 192 m 1
 789 1159 l 1
 1154 1118 1310 951 1310 672 c 0
 1310 398 1157 233 789 192 c 1
EndSplineSet
EndChar

StartChar: uni0426
Encoding: 1062 1062 508
Width: 1408
VWidth: 0
Flags: W
LayerCount: 2
Fore
SplineSet
1120 -257 m 1
 1228 -257 l 1
 1228 160 l 1
 1082 160 l 1
 1082 1353 l 1
 972 1353 l 1
 972 101 l 1
 308 101 l 1
 308 1353 l 1
 198 1353 l 1
 198 0 l 1
 1121 0 l 1
 1120 -257 l 1
EndSplineSet
EndChar

StartChar: uni0427
Encoding: 1063 1063 509
Width: 793
VWidth: 0
Flags: W
LayerCount: 2
Fore
SplineSet
768 -11 m 1
 896 -11 l 1
 896 1359 l 1
 768 1359 l 1
 768 523 l 1
 794 532 407 547 427 547 c 1
 290 547 216 586 216 831 c 2
 216 1359 l 1
 77 1359 l 1
 77 791 l 2
 77 613 141 431 349 431 c 1
 328 431 807 424 768 411 c 1
 768 -11 l 1
EndSplineSet
EndChar

StartChar: uni0428
Encoding: 1064 1064 510
Width: 1456
VWidth: 0
Flags: W
LayerCount: 2
Fore
SplineSet
156 0 m 1
 1285 0 l 1
 1285 1353 l 1
 1196 1353 l 1
 1196 106 l 1
 752 106 l 1
 752 1353 l 1
 663 1353 l 1
 663 106 l 1
 245 106 l 1
 245 1353 l 1
 156 1353 l 1
 156 0 l 1
EndSplineSet
EndChar

StartChar: uni0429
Encoding: 1065 1065 511
Width: 1532
VWidth: 0
Flags: W
LayerCount: 2
Fore
SplineSet
1301 -257 m 1
 1407 -257 l 1
 1407 160 l 1
 1327 160 l 1
 1327 1353 l 1
 1237 1353 l 1
 1237 106 l 1
 794 106 l 1
 794 1353 l 1
 705 1353 l 1
 705 106 l 1
 287 106 l 1
 287 1353 l 1
 198 1353 l 1
 198 0 l 1
 1302 0 l 1
 1301 -257 l 1
EndSplineSet
EndChar

StartChar: uni042A
Encoding: 1066 1066 512
Width: 1420
VWidth: 0
Flags: W
LayerCount: 2
Fore
SplineSet
531 -11 m 1
 828 -11 l 2
 1147 -11 1311 105 1311 349 c 0
 1311 593 1167 716 829 716 c 2
 664 716 l 1
 664 1359 l 1
 200 1359 l 1
 200 1258 l 1
 531 1258 l 1
 531 -11 l 1
664 91 m 1
 664 615 l 1
 848 615 l 2
 1115 615 1168 517 1168 359 c 0
 1168 185 1125 91 847 91 c 2
 664 91 l 1
EndSplineSet
EndChar

StartChar: uni042B
Encoding: 1067 1067 513
Width: 1032
VWidth: 0
Flags: W
LayerCount: 2
Fore
SplineSet
149 0 m 1
 441 0 l 2
 781 0 949 149 949 387 c 0
 949 634 776 773 454 773 c 2
 324 773 l 1
 324 1346 l 1
 149 1346 l 1
 149 0 l 1
324 141 m 1
 324 633 l 1
 453 633 l 2
 692 633 774 537 774 383 c 0
 774 223 689 141 459 141 c 2
 324 141 l 1
EndSplineSet
EndChar

StartChar: uni042E
Encoding: 1070 1070 514
Width: 2196
VWidth: 0
Flags: W
LayerCount: 2
Fore
SplineSet
1177 -24 m 0
 1555 -24 1773 295 1773 678 c 0
 1773 1099 1540 1404 1164 1404 c 0
 811 1404 607 1140 587 743 c 1
 237 743 l 1
 237 1379 l 1
 123 1379 l 1
 123 -7 l 1
 237 -7 l 1
 237 648 l 1
 584 648 l 1
 605 278 819 -24 1177 -24 c 0
1181 71 m 0
 867 71 700 235 700 681 c 0
 700 1000 858 1308 1167 1308 c 0
 1489 1308 1652 987 1652 684 c 0
 1652 360 1489 71 1181 71 c 0
EndSplineSet
EndChar

StartChar: uni0431
Encoding: 1073 1073 517
Width: 1006
VWidth: 0
Flags: W
LayerCount: 2
Fore
SplineSet
528 -19 m 0
 761 -19 895 181 895 392 c 0
 895 536 793 765 567 765 c 0
 391 765 351 705 215 640 c 1
 290 1007 582 1044 832 1059 c 1
 835 1131 l 1
 267 1098 108 856 108 487 c 1
 108 496 58 -19 528 -19 c 0
524 67 m 0
 385 67 183 180 232 550 c 1
 369 685 518 697 567 697 c 0
 716 697 817 559 817 406 c 0
 817 182 751 67 524 67 c 0
EndSplineSet
EndChar

StartChar: uni0432
Encoding: 1074 1074 518
Width: 1090
VWidth: 0
Flags: W
LayerCount: 2
Fore
SplineSet
194 0 m 1
 609 0 l 2
 914 0 974 163 974 281 c 0
 974 364 925 498 731 534 c 1
 890 575 938 642 938 757 c 0
 938 857 878 988 622 988 c 2
 194 988 l 1
 194 0 l 1
315 79 m 1
 315 469 l 1
 620 469 l 2
 823 469 833 367 832 281 c 1
 832 151 801 79 594 79 c 2
 315 79 l 1
315 564 m 1
 315 907 l 1
 595 907 l 2
 746 907 797 834 797 733 c 0
 797 651 768 564 616 564 c 2
 315 564 l 1
EndSplineSet
EndChar

StartChar: uni0433
Encoding: 1075 1075 519
Width: 994
VWidth: 0
Flags: W
LayerCount: 2
Fore
SplineSet
194 0 m 1
 315 0 l 1
 315 917 l 1
 895 917 l 1
 914 988 l 1
 194 988 l 1
 194 0 l 1
497 986 m 0
EndSplineSet
EndChar

StartChar: uni0434
Encoding: 1076 1076 520
Width: 1160
VWidth: 0
Flags: W
LayerCount: 2
Fore
SplineSet
57 -257 m 1
 144 -257 l 1
 138 0 l 1
 952 0 l 1
 941 -257 l 1
 1038 -257 l 1
 1038 71 l 1
 981 71 l 1
 981 988 l 1
 415 988 l 1
 284 260 l 1
 249 164 230 93 153 71 c 1
 57 71 l 1
 57 -257 l 1
278 69 m 1
 317 75 373 204 408 367 c 1
 406 348 501 948 500 923 c 1
 858 923 l 1
 858 69 l 1
 278 69 l 1
EndSplineSet
EndChar

StartChar: uni0434.copy_1
Encoding: 65539 -1 521
Width: 1108
VWidth: 0
Flags: W
LayerCount: 2
Fore
SplineSet
39 -275 m 1
 183 -275 l 1
 183 0 l 1
 901 0 l 1
 901 -275 l 1
 1049 -275 l 1
 1049 120 l 1
 970 120 l 1
 970 999 l 1
 331 999 l 1
 253 451 l 2
 232 306 196 175 127 120 c 1
 39 120 l 1
 39 -275 l 1
316 120 m 1
 351 153 402 292 428 478 c 2
 483 878 l 1
 795 878 l 1
 795 120 l 1
 316 120 l 1
EndSplineSet
EndChar

StartChar: uni0435
Encoding: 1077 1077 522
Width: 1074
VWidth: 0
Flags: W
LayerCount: 2
Fore
SplineSet
506 986 m 0
EndSplineSet
Refer: 219 101 N 1 0 0 1 0 0 2
EndChar

StartChar: uni0435.copy_1
Encoding: 65540 -1 523
Width: 1074
VWidth: 0
Flags: W
LayerCount: 2
Fore
SplineSet
510 999 m 0
EndSplineSet
Refer: 219 101 N 1 0 0 1 0 0 2
EndChar

StartChar: uni0436
Encoding: 1078 1078 524
Width: 1438
VWidth: 0
Flags: W
LayerCount: 2
Fore
SplineSet
57 0 m 1
 168 0 l 1
 646 490 l 1
 646 0 l 1
 767 0 l 1
 767 490 l 1
 1248 0 l 1
 1358 0 l 1
 852 510 l 1
 1355 988 l 1
 1258 988 l 1
 767 515 l 1
 767 988 l 1
 646 988 l 1
 646 515 l 1
 159 988 l 1
 60 988 l 1
 564 510 l 1
 57 0 l 1
EndSplineSet
EndChar

StartChar: uni0437
Encoding: 1079 1079 525
Width: 858
VWidth: 0
Flags: W
LayerCount: 2
Fore
SplineSet
384 -18 m 0
 605 -18 736 141 736 259 c 1
 737 374 681 479 529 523 c 1
 684 569 699 669 699 751 c 0
 699 862 667 1028 396 1028 c 0
 298 1028 193 1000 108 923 c 1
 130 870 141 839 141 839 c 1
 207 887 297 927 369 927 c 0
 513 927 589 853 589 739 c 0
 589 649 512 563 348 563 c 2
 279 563 l 1
 279 482 l 1
 348 482 l 2
 549 482 604 374 604 269 c 0
 604 159 498 74 378 74 c 0
 299 74 195 115 144 160 c 1
 121 64 l 1
 208 -6 308 -18 384 -18 c 0
430 986 m 0
430 0 m 0
EndSplineSet
EndChar

StartChar: uni0438
Encoding: 1080 1080 526
Width: 1088
VWidth: 0
Flags: W
LayerCount: 2
Fore
SplineSet
161 0 m 1
 253 0 l 1
 818 759 l 1
 818 0 l 1
 913 0 l 1
 913 988 l 1
 818 988 l 1
 818 904 l 1
 254 147 l 1
 254 988 l 1
 161 988 l 1
 161 0 l 1
544 986 m 0
EndSplineSet
EndChar

StartChar: uni043A
Encoding: 1082 1082 528
Width: 1122
VWidth: 0
Flags: W
LayerCount: 2
Fore
SplineSet
194 0 m 1
 315 0 l 1
 315 482 l 1
 820 0 l 1
 957 0 l 1
 444 493 l 1
 419 471 904 987 904 987 c 1
 751 985 l 1
 751 985 278 477 315 511 c 1
 315 988 l 1
 194 988 l 1
 194 0 l 1
561 986 m 0
EndSplineSet
EndChar

StartChar: uni043B
Encoding: 1083 1083 529
Width: 1168
VWidth: 0
Flags: W
LayerCount: 2
Fore
SplineSet
94 -7 m 1
 383 -13 391 215 463 516 c 1
 567 909 l 1
 839 909 l 1
 839 -1 l 1
 960 -1 l 1
 960 988 l 1
 484 988 l 1
 356 541 l 1
 284 166 230 69 77 77 c 1
 77 77 100 -7 94 -7 c 1
EndSplineSet
EndChar

StartChar: uni043B.copy_1
Encoding: 65541 -1 530
Width: 1128
VWidth: 0
Flags: W
LayerCount: 2
Fore
SplineSet
62 -14 m 1
 333 -14 393 167 434 454 c 2
 493 870 l 1
 804 870 l 1
 804 0 l 1
 979 0 l 1
 979 999 l 1
 341 999 l 1
 268 480 l 2
 227 187 192 118 48 118 c 1
 62 -14 l 1
EndSplineSet
EndChar

StartChar: uni043C
Encoding: 1084 1084 531
Width: 1195
VWidth: 0
Flags: W
LayerCount: 2
Fore
SplineSet
194 0 m 1
 287 0 l 1
 287 766 l 1
 555 137 l 1
 645 137 l 1
 890 766 l 1
 890 0 l 1
 985 0 l 1
 985 988 l 1
 885 988 l 1
 589 243 l 1
 295 988 l 1
 194 988 l 1
 194 0 l 1
EndSplineSet
EndChar

StartChar: uni043C.copy_1
Encoding: 65542 -1 532
Width: 1171
VWidth: 0
Flags: W
LayerCount: 2
Fore
SplineSet
149 0 m 1
 302 0 l 1
 302 711 l 1
 543 205 l 1
 640 205 l 1
 869 711 l 1
 869 0 l 1
 1022 0 l 1
 1022 999 l 1
 870 999 l 1
 585 385 l 1
 302 999 l 1
 149 999 l 1
 149 0 l 1
EndSplineSet
EndChar

StartChar: uni043D
Encoding: 1085 1085 533
Width: 1215
VWidth: 0
Flags: W
LayerCount: 2
Fore
SplineSet
194 0 m 1
 315 0 l 1
 315 485 l 1
 885 485 l 1
 885 0 l 1
 1006 0 l 1
 1006 988 l 1
 885 988 l 1
 885 563 l 1
 315 563 l 1
 315 988 l 1
 194 988 l 1
 194 0 l 1
EndSplineSet
EndChar

StartChar: uni043D.copy_1
Encoding: 65543 -1 534
Width: 1104
VWidth: 0
Flags: W
LayerCount: 2
Fore
SplineSet
130 0 m 1
 305 0 l 1
 305 471 l 1
 800 471 l 1
 800 0 l 1
 975 0 l 1
 975 999 l 1
 800 999 l 1
 800 594 l 1
 305 594 l 1
 305 999 l 1
 130 999 l 1
 130 0 l 1
EndSplineSet
EndChar

StartChar: uni043F
Encoding: 1087 1087 537
Width: 1074
VWidth: 0
Flags: W
LayerCount: 2
Fore
SplineSet
155 0 m 1
 238 0 l 1
 238 902 l 1
 823 902 l 1
 823 0 l 1
 905 0 l 1
 905 988 l 1
 155 988 l 1
 155 0 l 1
EndSplineSet
EndChar

StartChar: uni0440
Encoding: 1088 1088 538
Width: 1234
VWidth: 0
Flags: W
LayerCount: 2
Fore
SplineSet
135 -449 m 1
 251 -441 l 1
 251 -81 l 2
 251 3 251 81 246 160 c 1
 311 53 461 -23 606 -23 c 0
 866 -23 1061 189 1061 481 c 0
 1061 796 891 1005 588 1005 c 0
 445 1005 313 938 261 788 c 1
 247 985 l 1
 135 985 l 1
 135 -449 l 1
593 60 m 0
 325 60 252 244 252 507 c 1
 251 740 339 920 598 920 c 0
 842 920 945 726 945 490 c 0
 945 241 833 60 593 60 c 0
EndSplineSet
EndChar

StartChar: uni0442
Encoding: 1090 1090 540
Width: 958
VWidth: 0
Flags: W
LayerCount: 2
Fore
SplineSet
407 0 m 1
 534 0 l 1
 534 892 l 1
 818 892 l 1
 818 988 l 1
 127 988 l 1
 127 892 l 1
 407 892 l 1
 407 0 l 1
EndSplineSet
EndChar

StartChar: uni0443
Encoding: 1091 1091 541
Width: 1045
VWidth: 0
Flags: W
LayerCount: 2
Fore
SplineSet
114 -244 m 1
 717 -274 616 -12 649 88 c 1
 993 986 l 1
 870 986 l 1
 612 229 l 1
 234 986 l 1
 100 986 l 1
 576 154 l 1
 580 194 702 -185 124 -140 c 1
 114 -244 l 1
523 986 m 0
EndSplineSet
EndChar

StartChar: uni0444
Encoding: 1092 1092 542
Width: 1377
VWidth: 0
Flags: W
LayerCount: 2
Fore
SplineSet
603 -356 m 1
 699 -356 l 1
 699 75 l 1
 754 49 834 40 900 40 c 0
 1091 40 1243 236 1243 507 c 0
 1243 780 1105 952 909 952 c 0
 843 952 759 934 699 907 c 1
 699 1219 l 1
 603 1219 l 1
 603 907 l 1
 546 933 453 952 391 952 c 0
 194 952 59 779 59 506 c 0
 59 233 211 40 400 40 c 0
 466 40 546 49 603 75 c 1
 603 -356 l 1
406 125 m 0
 257 125 169 311 169 507 c 0
 169 705 241 868 390 868 c 0
 453 868 535 863 603 827 c 1
 603 164 l 1
 543 133 467 125 406 125 c 0
896 125 m 0
 833 125 762 131 699 167 c 1
 699 821 l 1
 765 857 845 867 911 867 c 0
 1058 867 1134 705 1134 506 c 0
 1134 310 1042 125 896 125 c 0
EndSplineSet
EndChar

StartChar: uni0446
Encoding: 1094 1094 544
Width: 1120
VWidth: 0
Flags: W
LayerCount: 2
Fore
SplineSet
891 -257 m 1
 1041 -257 l 1
 1041 126 l 1
 952 126 l 1
 952 988 l 1
 832 988 l 1
 832 72 l 1
 313 72 l 1
 313 988 l 1
 194 988 l 1
 194 0 l 1
 905 0 l 1
 891 -257 l 1
EndSplineSet
EndChar

StartChar: uni0447
Encoding: 1095 1095 545
Width: 1002
VWidth: 0
Flags: W
LayerCount: 2
Fore
SplineSet
672 0 m 1
 792 0 l 1
 792 988 l 1
 672 988 l 1
 672 379 l 1
 676 414 572 456 502 456 c 0
 368 456 280 470 280 742 c 2
 280 988 l 1
 159 988 l 1
 159 745 l 2
 159 493 287 368 484 370 c 1
 594 370 711 361 672 328 c 1
 672 0 l 1
EndSplineSet
EndChar

StartChar: uni0448
Encoding: 1096 1096 546
Width: 1394
VWidth: 0
Flags: W
LayerCount: 2
Fore
SplineSet
270 0 m 1
 1203 0 l 1
 1203 988 l 1
 1086 988 l 1
 1086 71 l 1
 795 71 l 1
 795 988 l 1
 677 988 l 1
 677 71 l 1
 385 71 l 1
 385 988 l 1
 270 988 l 1
 270 0 l 1
EndSplineSet
EndChar

StartChar: uni0449
Encoding: 1097 1097 547
Width: 1352
VWidth: 0
Flags: W
LayerCount: 2
Fore
SplineSet
1124 -262 m 1
 1272 -262 l 1
 1272 125 l 1
 1182 125 l 1
 1182 988 l 1
 1050 988 l 1
 1050 72 l 1
 782 72 l 1
 782 988 l 1
 650 988 l 1
 650 72 l 1
 326 72 l 1
 326 988 l 1
 196 988 l 1
 196 0 l 1
 1135 0 l 1
 1124 -262 l 1
EndSplineSet
EndChar

StartChar: uni044A
Encoding: 1098 1098 548
Width: 961
VWidth: 0
Flags: W
LayerCount: 2
Fore
SplineSet
213 0 m 1
 522 0 l 2
 792 0 856 181 856 324 c 0
 856 458 803 627 521 627 c 2
 334 627 l 1
 334 988 l 1
 77 988 l 1
 77 914 l 1
 213 914 l 1
 213 0 l 1
333 79 m 1
 333 540 l 1
 530 540 l 2
 669 540 721 432 721 326 c 0
 721 226 681 79 536 79 c 2
 333 79 l 1
EndSplineSet
EndChar

StartChar: uni044B
Encoding: 1099 1099 549
Width: 1397
VWidth: 0
Flags: W
LayerCount: 2
Fore
SplineSet
149 0 m 1
 531 0 l 2
 775 0 870 162 870 326 c 0
 870 490 769 635 525 635 c 2
 323 635 l 1
 323 999 l 1
 149 999 l 1
 149 0 l 1
323 122 m 1
 323 511 l 1
 527 511 l 2
 647 511 696 419 696 329 c 0
 696 239 653 122 533 122 c 2
 323 122 l 1
1074 0 m 1
 1248 0 l 1
 1248 998 l 1
 1074 998 l 1
 1074 0 l 1
EndSplineSet
EndChar

StartChar: uni044C
Encoding: 1100 1100 550
Width: 953
VWidth: 0
Flags: W
LayerCount: 2
Fore
SplineSet
194 0 m 1
 514 0 l 2
 785 0 848 179 848 322 c 0
 848 455 795 624 512 624 c 2
 314 624 l 1
 314 987 l 1
 194 987 l 1
 194 0 l 1
313 79 m 1
 313 538 l 1
 520 538 l 2
 661 538 713 428 713 324 c 0
 713 225 673 79 527 79 c 2
 313 79 l 1
EndSplineSet
EndChar

StartChar: uni044C.copy_1
Encoding: 65545 -1 551
Width: 940
VWidth: 0
Flags: W
LayerCount: 2
Fore
SplineSet
128 0 m 1
 510 0 l 2
 754 0 849 162 849 326 c 0
 849 490 748 635 504 635 c 2
 302 635 l 1
 302 999 l 1
 128 999 l 1
 128 0 l 1
302 122 m 1
 302 511 l 1
 506 511 l 2
 626 511 675 419 675 329 c 0
 675 239 632 122 512 122 c 2
 302 122 l 1
EndSplineSet
EndChar

StartChar: uni044D
Encoding: 1101 1101 552
Width: 1117
VWidth: 0
Flags: W
LayerCount: 2
Fore
SplineSet
466 -26 m 0
 815 -26 948 259 948 478 c 0
 948 721 843 1016 453 1016 c 0
 359 1016 227 985 159 923 c 1
 193 852 l 1
 268 897 347 932 455 932 c 0
 716 932 835 759 851 537 c 1
 439 537 l 1
 439 443 l 1
 851 443 l 1
 836 227 688 60 460 60 c 0
 384 60 298 77 196 135 c 1
 167 62 l 1
 216 9 337 -26 466 -26 c 0
EndSplineSet
EndChar

StartChar: uni044E
Encoding: 1102 1102 553
Width: 1421
VWidth: 0
Flags: W
LayerCount: 2
Fore
SplineSet
850 -26 m 0
 1159 -26 1250 220 1250 493 c 0
 1250 779 1171 1016 855 1016 c 0
 563 1016 446 799 440 530 c 1
 243 530 l 1
 243 988 l 1
 161 988 l 1
 161 0 l 1
 243 0 l 1
 243 451 l 1
 440 451 l 1
 445 178 560 -26 850 -26 c 0
855 60 m 0
 612 60 539 274 539 486 c 0
 539 703 609 930 850 930 c 0
 1101 930 1154 715 1154 491 c 0
 1154 273 1092 60 855 60 c 0
EndSplineSet
EndChar

StartChar: uni044F
Encoding: 1103 1103 554
Width: 1102
VWidth: 0
Flags: W
LayerCount: 2
Fore
SplineSet
140 0 m 1
 275 0 l 1
 456 404 l 1
 773 404 l 1
 773 0 l 1
 891 0 l 1
 891 988 l 1
 466 988 l 2
 192 988 123 817 123 685 c 0
 123 582 177 453 338 410 c 1
 140 0 l 1
432 487 m 2
 290 487 245 559 245 685 c 0
 245 784 289 908 432 908 c 2
 773 908 l 1
 773 487 l 1
 432 487 l 2
EndSplineSet
EndChar

StartChar: uni0452
Encoding: 1106 1106 557
Width: 1247
VWidth: 0
Flags: W
LayerCount: 2
Fore
SplineSet
742 -262 m 1
 804 -262 l 2
 1074 -262 1093 -143 1093 137 c 2
 1093 399 l 2
 1093 661 987 804 753 804 c 0
 609 804 500 737 415 627 c 1
 415 1002 l 1
 805 1002 l 1
 805 1096 l 1
 415 1096 l 1
 415 1369 l 1
 275 1369 l 1
 275 1096 l 1
 188 1096 l 1
 188 1002 l 1
 275 1002 l 1
 275 0 l 1
 415 0 l 1
 415 448 l 1
 441 547 574 677 739 677 c 0
 920 677 951 560 951 332 c 2
 951 89 l 2
 951 -109 930 -142 765 -142 c 2
 732 -142 l 1
 742 -262 l 1
EndSplineSet
EndChar

StartChar: uni0459
Encoding: 1113 1113 560
Width: 1648
VWidth: 0
Flags: W
LayerCount: 2
Fore
SplineSet
107 -23 m 1
 141 -23 l 2
 419 -23 422 83 422 381 c 2
 422 870 l 1
 851 870 l 1
 851 0 l 1
 1202 0 l 2
 1446 0 1541 162 1541 326 c 0
 1541 490 1440 635 1196 635 c 2
 1004 635 l 1
 1004 999 l 1
 269 999 l 1
 269 372 l 2
 269 168 267 116 141 116 c 2
 98 116 l 1
 107 -23 l 1
1004 120 m 1
 1004 511 l 1
 1218 511 l 2
 1338 511 1393 419 1393 329 c 0
 1393 239 1344 120 1224 120 c 2
 1004 120 l 1
EndSplineSet
EndChar

StartChar: uni045A
Encoding: 1114 1114 561
Width: 1537
VWidth: 0
Flags: W
LayerCount: 2
Fore
SplineSet
161 0 m 1
 243 0 l 1
 243 493 l 1
 742 493 l 1
 742 0 l 1
 1038 0 l 2
 1311 0 1371 178 1371 325 c 0
 1371 454 1299 630 1027 630 c 2
 826 630 l 1
 826 988 l 1
 742 988 l 1
 742 562 l 1
 243 562 l 1
 243 988 l 1
 161 988 l 1
 161 0 l 1
826 73 m 1
 826 543 l 1
 1074 543 l 2
 1214 543 1271 428 1271 326 c 0
 1271 228 1223 73 1084 73 c 2
 826 73 l 1
EndSplineSet
EndChar

StartChar: uni045B
Encoding: 1115 1115 562
Width: 1244
VWidth: 0
Flags: W
LayerCount: 2
Fore
SplineSet
264 0 m 1
 441 0 l 1
 441 534 l 1
 474 479 517 424 596 424 c 0
 743 424 769 377 769 163 c 2
 769 0 l 1
 948 0 l 1
 948 175 l 2
 948 418 854 535 624 535 c 0
 499 535 442 543 441 596 c 1
 441 927 l 1
 761 927 l 1
 761 1020 l 1
 404 1020 l 1
 404 1324 l 1
 264 1324 l 1
 264 1020 l 1
 102 1020 l 1
 102 926 l 1
 264 926 l 1
 264 0 l 1
EndSplineSet
EndChar

StartChar: uni045B.copy_1
Encoding: 65546 -1 563
Width: 1128
VWidth: 0
Flags: W
LayerCount: 2
Fore
SplineSet
192 0 m 1
 366 0 l 1
 366 502 l 1
 395 504 470 519 576 519 c 0
 727 519 754 451 754 233 c 2
 754 0 l 1
 928 0 l 1
 928 269 l 2
 928 520 830 650 598 650 c 0
 473 650 398 633 366 630 c 1
 366 954 l 1
 704 954 l 1
 704 1060 l 1
 345 1060 l 1
 345 1347 l 1
 192 1347 l 1
 192 1060 l 1
 64 1060 l 1
 64 954 l 1
 192 954 l 1
 192 0 l 1
EndSplineSet
EndChar

StartChar: uni045F
Encoding: 1119 1119 567
Width: 1031
VWidth: 0
Flags: W
LayerCount: 2
Fore
SplineSet
512 -219 m 1
 574 -219 l 1
 575 0 l 1
 861 0 l 1
 861 988 l 1
 778 988 l 1
 778 72 l 1
 243 72 l 1
 243 988 l 1
 161 988 l 1
 161 0 l 1
 511 0 l 1
 512 -219 l 1
EndSplineSet
EndChar

StartChar: uni2074
Encoding: 8308 8308 586
Width: 675
VWidth: 0
Flags: W
LayerCount: 2
Fore
SplineSet
424 632 m 1
 474 632 l 1
 473 837 l 1
 564 837 l 1
 559 904 l 1
 476 904 l 1
 476 1425 l 1
 405 1425 l 1
 132 907 l 1
 132 837 l 1
 424 837 l 1
 424 632 l 1
171 904 m 1
 426 1334 l 1
 424 904 l 1
 171 904 l 1
EndSplineSet
EndChar

StartChar: uni2116
Encoding: 8470 8470 587
Width: 2524
VWidth: 0
Flags: W
LayerCount: 2
Fore
SplineSet
2085 0 m 1
 2138 0 l 1
 2138 1034 l 2
 2138 1200 2149 1247 2149 1247 c 1
 2598 617 2621 625 3075 0 c 1
 3156 0 l 1
 3156 1349 l 1
 3105 1349 l 1
 3105 393 l 2
 3105 322 3100 60 3099 110 c 1
 2647 739 2626 725 2170 1349 c 1
 2085 1349 l 1
 2085 0 l 1
-434 69 m 0
 -683 69 -774 268 -774 488 c 0
 -774 712 -682 914 -433 914 c 0
 -186 914 -92 712 -92 487 c 0
 -92 268 -184 69 -434 69 c 0
-430 -23 m 0
 -162 -23 24 203 24 490 c 0
 24 790 -143 1005 -437 1005 c 0
 -722 1005 -891 785 -891 490 c 0
 -891 200 -708 -23 -430 -23 c 0
EndSplineSet
EndChar

StartChar: uni2206
Encoding: 8710 8710 588
Width: 1270
VWidth: 0
Flags: W
LayerCount: 2
Fore
SplineSet
99 0 m 1
 1173 0 l 1
 1173 78 l 1
 723 1402 l 1
 550 1402 l 1
 99 78 l 1
 99 0 l 1
282 158 m 1
 602 1087 l 1
 632 1194 l 1
 664 1087 l 1
 990 158 l 1
 282 158 l 1
EndSplineSet
EndChar

StartChar: uniFB01
Encoding: 64257 64257 589
Width: 1131
VWidth: 0
Flags: W
LayerCount: 2
Fore
SplineSet
320 0 m 1
 405 0 l 1
 405 928 l 1
 876 928 l 1
 876 0 l 1
 958 0 l 1
 958 988 l 1
 405 988 l 1
 405 1012 l 1
 406 1240 422 1319 609 1319 c 2
 705 1319 l 1
 688 1389 l 1
 623 1389 l 2
 438 1389 329 1355 320 1037 c 1
 320 988 l 1
 180 988 l 1
 180 918 l 1
 320 918 l 1
 320 0 l 1
876 1209 m 1
 958 1209 l 1
 958 1364 l 1
 876 1364 l 1
 876 1209 l 1
EndSplineSet
EndChar

StartChar: upsilon
Encoding: 965 965 591
Width: 484
VWidth: 0
Flags: W
LayerCount: 2
Fore
SplineSet
229 485 m 0
 307 485 346 542 346 600 c 0
 346 658 307 715 229 715 c 0
 152 715 113 658 113 600 c 0
 113 542 152 485 229 485 c 0
243 986 m 0
EndSplineSet
EndChar

StartChar: upsilondieresis
Encoding: 971 971 592
Width: 484
VWidth: 0
Flags: W
LayerCount: 2
Fore
SplineSet
229 485 m 0
 307 485 346 542 346 600 c 0
 346 658 307 715 229 715 c 0
 152 715 113 658 113 600 c 0
 113 542 152 485 229 485 c 0
EndSplineSet
EndChar

StartChar: upsilondieresistonos
Encoding: 944 944 593
Width: 484
VWidth: 0
Flags: W
LayerCount: 2
Fore
SplineSet
229 485 m 0
 307 485 346 542 346 600 c 0
 346 658 307 715 229 715 c 0
 152 715 113 658 113 600 c 0
 113 542 152 485 229 485 c 0
EndSplineSet
EndChar

StartChar: upsilontonos
Encoding: 973 973 594
Width: 484
VWidth: 0
Flags: W
LayerCount: 2
Fore
SplineSet
229 485 m 0
 307 485 346 542 346 600 c 0
 346 658 307 715 229 715 c 0
 152 715 113 658 113 600 c 0
 113 542 152 485 229 485 c 0
EndSplineSet
EndChar

StartChar: v
Encoding: 118 118 597
Width: 999
VWidth: 0
Flags: W
LayerCount: 2
Fore
SplineSet
440 0 m 1
 561 0 l 1
 937 986 l 1
 824 986 l 1
 613 409 l 1
 481 56 l 1
 519 56 l 1
 388 406 l 1
 175 986 l 1
 62 986 l 1
 440 0 l 1
EndSplineSet
EndChar

StartChar: w
Encoding: 119 119 598
Width: 1449
VWidth: 0
Flags: W
LayerCount: 2
Fore
SplineSet
339 0 m 1
 449 0 l 1
 740 949 l 1
 715 949 l 1
 1036 0 l 1
 1129 0 l 1
 1383 986 l 1
 1283 986 l 1
 1066 57 l 1
 1099 57 l 1
 791 986 l 1
 661 986 l 1
 377 57 l 1
 408 57 l 1
 170 986 l 1
 66 986 l 1
 339 0 l 1
724 986 m 0
EndSplineSet
EndChar

StartChar: x
Encoding: 120 120 603
Width: 989
VWidth: 0
Flags: W
LayerCount: 2
Fore
SplineSet
64 0 m 1
 165 0 l 1
 506 450 l 1
 542 477 l 1
 913 986 l 1
 812 986 l 1
 489 540 l 1
 454 514 l 1
 64 0 l 1
820 0 m 1
 927 0 l 1
 179 986 l 1
 73 986 l 1
 820 0 l 1
EndSplineSet
EndChar

StartChar: xi
Encoding: 958 958 604
Width: 484
VWidth: 0
Flags: W
LayerCount: 2
Fore
SplineSet
229 485 m 0
 307 485 346 542 346 600 c 0
 346 658 307 715 229 715 c 0
 152 715 113 658 113 600 c 0
 113 542 152 485 229 485 c 0
EndSplineSet
EndChar

StartChar: y
Encoding: 121 121 605
Width: 1005
VWidth: 0
Flags: W
LayerCount: 2
Fore
SplineSet
425 -374 m 1
 955 986 l 1
 848 986 l 1
 512 110 l 1
 545 110 l 1
 191 986 l 1
 76 986 l 1
 498 -30 l 1
 498 75 l 1
 332 -360 l 1
 425 -374 l 1
488 986 m 0
EndSplineSet
EndChar

StartChar: yen
Encoding: 165 165 609
Width: 1286
VWidth: 0
Flags: W
LayerCount: 2
Fore
SplineSet
601 0 m 1
 661 0 l 1
 661 282 l 1
 982 282 l 1
 982 361 l 1
 661 361 l 1
 661 567 l 1
 980 567 l 1
 980 650 l 1
 671 650 l 1
 1059 1353 l 1
 989 1353 l 1
 633 699 l 1
 287 1353 l 1
 212 1353 l 1
 581 650 l 1
 268 650 l 1
 268 567 l 1
 601 567 l 1
 601 361 l 1
 266 361 l 1
 266 282 l 1
 601 282 l 1
 601 0 l 1
EndSplineSet
EndChar

StartChar: z
Encoding: 122 122 611
Width: 858
VWidth: 0
Flags: W
LayerCount: 2
Fore
SplineSet
114 0 m 1
 752 0 l 1
 752 78 l 1
 166 78 l 1
 189 27 l 1
 747 908 l 1
 747 986 l 1
 134 986 l 1
 134 908 l 1
 691 908 l 1
 670 955 l 1
 114 77 l 1
 114 0 l 1
444 986 m 0
EndSplineSet
EndChar

StartChar: zero
Encoding: 48 48 615
Width: 1150
VWidth: 0
Flags: W
LayerCount: 2
Fore
SplineSet
581 63 m 0
 389 63 243 223 243 673 c 1
 241 1098 388 1273 581 1273 c 0
 773 1273 908 1137 908 675 c 0
 908 224 773 63 581 63 c 0
581 -31 m 0
 884 -31 1018 241 1018 670 c 0
 1018 1128 863 1368 581 1368 c 0
 298 1368 132 1126 132 670 c 0
 132 241 278 -31 581 -31 c 0
EndSplineSet
EndChar

StartChar: zeta
Encoding: 950 950 616
Width: 484
VWidth: 0
Flags: W
LayerCount: 2
Fore
SplineSet
229 485 m 0
 307 485 346 542 346 600 c 0
 346 658 307 715 229 715 c 0
 152 715 113 658 113 600 c 0
 113 542 152 485 229 485 c 0
EndSplineSet
EndChar

